<?xml version="1.0" encoding="UTF-8"?> <svg xmlns="http://www.w3.org/2000/svg" width="40" height="40" viewBox="0 0 40 40" fill="none"> <path d="M4.47798 12.9807H0.995794C0.46134 12.9807 0.0281372 13.4139 0.0281372 13.9484C0.0281372 14.4828 0.46134 14.916 0.995794 14.916H4.4779C5.01243 14.916 5.44564 14.4828 5.44564 13.9484C5.44564 13.4139 5.01243 12.9807 4.47798 12.9807Z" fill="#343B3B"></path> <path d="M39.0041 12.9807H35.5219C34.9876 12.9807 34.5543 13.4139 34.5543 13.9484C34.5543 14.4828 34.9876 14.916 35.5219 14.916H39.0041C39.5385 14.916 39.9718 14.4828 39.9718 13.9484C39.9718 13.4139 39.5385 12.9807 39.0041 12.9807Z" fill="#343B3B"></path> <path d="M8.46462 25.4839C8.08673 25.106 7.47407 25.106 7.09611 25.4839L4.56329 28.0167C4.1854 28.3946 4.1854 29.0072 4.56329 29.3852C4.75228 29.5742 4.99993 29.6686 5.24751 29.6686C5.49509 29.6686 5.74283 29.5742 5.93173 29.3852L8.46462 26.8524C8.84251 26.4746 8.84251 25.8618 8.46462 25.4839Z" fill="#343B3B"></path> <path d="M33.6652 0.283418C33.2872 -0.0944726 32.6747 -0.0944726 32.2967 0.283418L29.8333 2.74686C29.4554 3.12475 29.4554 3.73748 29.8333 4.11529C30.0223 4.30412 30.27 4.39865 30.5175 4.39865C30.7653 4.39865 31.0128 4.30412 31.2018 4.11521L33.6651 1.65186C34.043 1.27396 34.043 0.66123 33.6652 0.283418Z" fill="#343B3B"></path> <path d="M10.1654 2.74558L7.70327 0.283545C7.32537 -0.0941895 6.71264 -0.0941895 6.33475 0.283545C5.95686 0.661436 5.95686 1.27417 6.33475 1.65206L8.79686 4.11417C8.98584 4.30308 9.2335 4.39761 9.48108 4.39761C9.72866 4.39761 9.97639 4.30308 10.1653 4.11417C10.5432 3.73628 10.5432 3.12354 10.1654 2.74558Z" fill="#343B3B"></path> <path d="M35.4365 28.017L32.9131 25.4934C32.5351 25.1155 31.9226 25.1155 31.5446 25.4934C31.1667 25.8713 31.1667 26.4841 31.5446 26.8619L34.0681 29.3854C34.2571 29.5744 34.5047 29.6688 34.7523 29.6688C35.0001 29.6688 35.2476 29.5743 35.4365 29.3854C35.8144 29.0076 35.8144 28.3949 35.4365 28.017Z" fill="#343B3B"></path> <path d="M20 2.62793C13.3087 2.62793 7.86501 8.3221 7.86501 15.3213C7.86501 18.5752 9.03056 22.0777 11.0629 24.9307C12.6238 27.1217 13.4487 29.5596 13.4487 31.9808V38.0648C13.4487 39.1319 14.3169 40.0001 15.384 40.0001H24.616C25.6832 40.0001 26.5514 39.1319 26.5514 38.0648V31.9808C26.5514 29.5596 27.3763 27.1217 28.937 24.9307C30.9694 22.0778 32.135 18.5752 32.135 15.3213C32.1348 8.3221 26.6911 2.62793 20 2.62793ZM24.6159 38.0649H15.3839V36.7992H19.9999C20.5344 36.7992 20.9677 36.366 20.9677 35.8316C20.9677 35.2971 20.5344 34.8639 19.9999 34.8639H15.3839V33.5983H24.6161L24.6172 38.0648C24.6171 38.0649 24.6167 38.0649 24.6159 38.0649ZM18.643 20.0112L17.3489 17.2466H22.651L21.357 20.0112C21.3061 20.1201 21.2759 20.2375 21.2678 20.3573L20.5174 31.6629H19.4825L18.7321 20.3573C18.7241 20.2375 18.6938 20.1201 18.643 20.0112ZM27.3607 23.8079C25.6323 26.2342 24.6882 28.9433 24.6199 31.6629H22.457L23.1868 20.6669L25.0486 16.6891C25.1889 16.3894 25.1664 16.0387 24.9887 15.7595C24.8111 15.4803 24.5032 15.3112 24.1722 15.3112H15.8276C15.4966 15.3112 15.1887 15.4803 15.0111 15.7595C14.8335 16.0386 14.8108 16.3893 14.9511 16.689L16.813 20.6668L17.5428 31.6629H15.3798C15.3115 28.9432 14.3675 26.2341 12.639 23.8078C10.8614 21.3123 9.8001 18.1397 9.8001 15.3212C9.8001 9.38914 14.3757 4.56318 19.9998 4.56318C25.6239 4.56318 30.1994 9.38914 30.1994 15.3212C30.1996 18.1399 29.1383 21.3125 27.3607 23.8079Z" fill="#343B3B"></path> </svg> 