<?xml version="1.0" encoding="UTF-8"?> <svg xmlns="http://www.w3.org/2000/svg" width="80" height="80" viewBox="0 0 80 80" fill="none"> <g clip-path="url(#clip0)"> <path d="M78.7336 9.32396C77.5779 5.68919 76.0115 3.08665 75.9451 2.97728C75.6882 2.55394 75.1594 2.33372 74.6804 2.44358C74.5564 2.4719 71.5984 3.16233 68.1863 4.86644C63.5798 7.16624 60.362 10.2366 58.8796 13.7439C57.6457 16.6648 57.4685 20.2356 58.344 24.1804C56.4792 22.0979 54.3816 20.2761 52.0949 18.7424C51.3967 17.363 49.5505 13.967 46.6643 10.4177C45.7136 9.24925 43.885 10.7156 44.8454 11.8957C46.7903 14.2878 48.2541 16.6404 49.1697 18.2566L38.4944 16.1755L28.3518 2.34104C29.3366 2.35472 30.3249 2.44993 31.3083 2.6428C34.426 3.25315 37.5056 4.84105 40.4631 7.36155C41.6218 8.34935 43.1267 6.55149 41.9831 5.57737C38.716 2.79319 35.2761 1.03147 31.7585 0.342509C26.3889 -0.708273 20.1262 0.671122 13.6457 4.33323C8.81564 7.06273 5.58565 10.0608 5.45089 10.1867C5.01876 10.5906 4.94991 11.324 5.31173 11.7956C5.78536 12.7673 7.58028 16.2727 10.5681 20.0466C12.3293 22.2717 14.1867 24.176 16.1081 25.741C15.5622 26.1985 15.031 26.677 14.5168 27.1804C11.7707 29.8664 9.66818 33.0349 8.2878 36.4988C7.06759 39.5593 6.41134 42.8518 6.37472 46.2454C6.31417 51.7947 7.92208 57.1467 11.0256 61.7239C14.0573 66.1946 18.2956 69.6272 23.282 71.6501C24.6775 72.2151 25.5598 70.0447 24.1633 69.4783C22.3567 68.7454 20.6594 67.8064 19.094 66.6897C19.2942 65.5793 19.7585 61.5832 17.1042 57.4465C16.7326 56.8679 17.8435 54.5955 18.5066 53.238C19.1911 51.8391 19.8977 50.3928 20.2278 49.031C20.5783 47.5842 20.1838 46.3699 19.0876 45.5178C18.2829 44.8923 17.2297 44.5686 16.3015 44.283C15.6985 44.0974 15.0149 43.8874 14.7707 43.6838C14.2678 43.2624 13.4465 41.7053 12.7863 40.4548C12.0539 39.0676 11.3567 37.7473 10.6447 36.9343C12.2468 33.1296 14.82 29.7629 18.0427 27.1872C20.9865 29.1926 24.3464 30.5764 27.9177 30.8567C23.7761 34.0657 22.4362 38.1638 24.3513 42.1003C26.5876 46.697 31.1906 45.9626 35.2517 45.3157C35.9543 45.2034 36.6814 45.0876 37.3777 45.0007C37.6389 44.968 37.7175 45.0393 37.7702 45.0857C38.6594 45.8767 38.633 49.6545 38.614 52.4133C38.5881 56.2292 38.5637 59.8337 39.9851 61.6843C40.7102 62.6277 41.7312 63.1101 42.928 63.1101C43.6452 63.1101 44.4245 62.9373 45.2419 62.5867C48.7766 61.073 52.4509 56.5173 51.8904 52.9128C51.4006 49.7615 51.0764 47.6794 51.8406 46.0012C52.5471 44.448 54.2551 43.01 57.6189 41.175C58.0217 42.989 58.2248 44.8762 58.2038 46.8122C58.1321 53.4206 55.4905 59.6057 50.7663 64.2273C45.4865 69.3923 38.0661 71.9431 30.7258 71.134C29.2302 70.9719 28.9719 73.2991 30.4695 73.4641C38.5041 74.3489 46.6277 71.5559 52.405 65.9031C57.5774 60.843 60.469 54.0725 60.5476 46.8372C60.6521 37.2439 55.7297 28.7449 48.2365 23.8489C49.7849 22.7449 50.9382 21.7903 51.5779 21.2361C54.3098 23.196 56.7331 25.6106 58.7492 28.4236C63.5891 35.178 65.5085 43.4119 64.155 51.6101C61.3596 68.5334 45.3181 80.029 28.3918 77.2327C20.1931 75.8787 13.0129 71.4138 8.17306 64.6594C3.33272 57.9055 1.41329 49.6706 2.76729 41.4729C3.01046 39.9978 0.699423 39.6106 0.455282 41.0911C-1.00126 49.907 1.06368 58.762 6.2673 66.0251C11.4719 73.2873 19.1941 78.0891 28.01 79.5457C29.8537 79.8498 31.6994 80.0002 33.5324 80.0002C40.4612 80.0002 47.2014 77.8489 52.945 73.7331C60.2092 68.5286 65.0115 60.8079 66.467 51.9919C67.5339 45.532 66.7082 39.051 64.1438 33.1907C65.3274 32.8415 67.3415 32.1638 69.5476 31.0622C74.1531 28.7624 77.3713 25.6921 78.8533 22.1848C80.3367 18.6765 80.2952 14.2292 78.7336 9.32396V9.32396ZM10.7131 41.5486C11.5852 43.2019 12.4099 44.7644 13.2668 45.4812C13.8737 45.9885 14.7185 46.2483 15.6125 46.5232C17.903 47.2273 18.1692 47.573 17.9494 48.4788C17.6799 49.5925 17.0295 50.9226 16.4011 52.2082C15.1906 54.6848 14.0476 57.0227 15.1311 58.7122C16.6677 61.1067 16.9309 63.4641 16.9045 64.9304C9.92404 58.636 7.08175 48.6941 9.68185 39.6579C10.0266 40.2488 10.3889 40.9353 10.7131 41.5486V41.5486ZM67.4148 18.5178L64.0842 10.4465C65.7048 8.93089 67.5852 7.79026 69.1868 6.98704C70.551 6.30247 71.8489 5.79075 72.8899 5.42796L67.4148 18.5178ZM75.0505 6.33665C75.5159 7.33665 76.0554 8.6262 76.5163 10.0837C77.0217 11.6833 77.4856 13.6658 77.5779 15.7336L69.7727 18.9538L75.0505 6.33665ZM61.0383 14.6565C61.384 13.8391 61.8308 13.0813 62.3469 12.3816L66.1384 21.5686L62.7361 29.7043C62.258 28.6902 61.695 27.3581 61.2175 25.845C60.259 22.8152 59.4504 18.4138 61.0383 14.6565ZM68.5466 28.9416C67.2336 29.6008 65.9807 30.0998 64.9602 30.4597L68.491 22.0188L77.4783 18.3103C77.3479 19.3171 77.0994 20.3152 76.6946 21.2722C75.1072 25.0295 71.3874 27.5173 68.5466 28.9416ZM26.2873 28.2746C25.8733 28.1936 25.4646 28.0945 25.0617 27.9817L38.0324 18.4739L48.7126 20.5554C44.822 23.6208 35.3537 30.051 26.2873 28.2746V28.2746ZM14.4333 20.9421C11.6594 17.9524 9.62618 14.7556 8.4587 12.7087L22.05 15.3586L14.4333 20.9421ZM16.8337 5.30589L22.5202 13.0622L8.84103 10.3957C10.5632 9.03587 13.406 6.99437 16.8337 5.30589ZM25.9109 13.7234L19.0168 4.31956C21.0808 3.47142 23.2961 2.80394 25.5671 2.50706L35.1042 15.5149L25.9109 13.7234ZM25.1814 15.969L34.9016 17.8635L22.4265 27.0076C20.0739 25.9211 17.9568 24.3591 16.1042 22.6228L25.1814 15.969ZM56.9822 38.8547C52.7571 41.1057 50.6882 42.8738 49.7068 45.0305C48.6526 47.3464 49.0388 49.8323 49.5735 53.2727C49.8894 55.3015 47.4782 59.0793 44.3191 60.4324C43.1501 60.9329 42.3176 60.8738 41.8435 60.2561C40.9123 59.0442 40.9377 55.3762 40.9577 52.4294C40.9856 48.3523 41.01 44.8313 39.3279 43.3347C38.7229 42.7966 37.9489 42.5691 37.0891 42.6746C36.3523 42.7663 35.6047 42.8855 34.8825 43.0007C30.5744 43.6872 27.8635 43.9621 26.4592 41.0749C24.1838 36.3987 28.7898 32.9348 30.8757 31.6628C31.3005 31.404 31.6945 31.0989 32.0608 30.759C37.1023 30.1565 41.8659 27.9934 46.1111 25.2839C51.2009 28.3249 55.1081 33.1374 56.9822 38.8547V38.8547Z" fill="#343B3B"></path> </g> <defs> <clipPath id="clip0"> <rect width="80" height="80" fill="white"></rect> </clipPath> </defs> </svg> 