<?xml version="1.0" encoding="UTF-8"?> <svg xmlns="http://www.w3.org/2000/svg" width="40" height="40" viewBox="0 0 40 40" fill="none"> <g clip-path="url(#clip0)"> <path d="M25.6911 28.8072C25.2705 28.5545 24.8389 28.3004 24.4073 28.0513C24.5088 27.1865 24.509 26.3116 24.4077 25.4485C24.841 25.1985 25.2724 24.9446 25.6909 24.693C26.3956 24.2695 26.6894 23.3761 26.3741 22.6146C26.3741 22.6146 26.3741 22.6146 26.374 22.6145L25.4544 20.3944C25.139 19.6331 24.2999 19.2088 23.5018 19.4076C23.0275 19.5257 22.5429 19.6512 22.06 19.7808C21.5209 19.0986 20.9022 18.4801 20.2191 17.9406C20.3487 17.4576 20.4743 16.9728 20.5924 16.4983C20.7912 15.7006 20.367 14.8612 19.6058 14.5458L17.3856 13.6262C16.6244 13.3108 15.7307 13.6043 15.3071 14.3091C15.0548 14.729 14.8007 15.1606 14.5513 15.593C13.6867 15.4915 12.812 15.4912 11.9485 15.5924C11.6984 15.1587 11.4444 14.7273 11.193 14.3091C10.7693 13.6044 9.87586 13.3108 9.11453 13.6262L6.89437 14.5458C6.13328 14.8612 5.7089 15.7006 5.90773 16.4983C6.02609 16.9737 6.15156 17.4584 6.28086 17.9401C5.59875 18.4791 4.98015 19.098 4.44078 19.781C3.95672 19.6511 3.47187 19.5256 2.99836 19.4076C2.20039 19.2087 1.36117 19.6333 1.04578 20.3944L0.126327 22.6145C-0.188908 23.3759 0.104764 24.2694 0.809296 24.6928C1.22922 24.9452 1.66086 25.1992 2.09312 25.4487C1.99172 26.3132 1.99148 27.1879 2.09266 28.0515C1.66 28.3011 1.22859 28.5551 0.809139 28.8071C0.104608 29.2306 -0.189064 30.1241 0.126249 30.8855L1.04594 33.1056C1.36125 33.8668 2.20023 34.2913 2.99851 34.0924C3.47226 33.9744 3.95695 33.8489 4.44016 33.7192C4.9793 34.4013 5.59797 35.0198 6.28101 35.5593C6.15133 36.0428 6.02578 36.5277 5.90773 37.0016C5.7089 37.7993 6.13312 38.6388 6.89437 38.9541L9.11461 39.8738C9.32086 39.9592 9.53672 39.9999 9.75031 39.9999C10.3255 39.9999 10.8842 39.7047 11.1934 39.191C11.4437 38.7743 11.6977 38.3428 11.9491 37.9072C12.8136 38.0085 13.6885 38.0087 14.552 37.9077C14.8003 38.3383 15.0543 38.7697 15.3074 39.191C15.731 39.8957 16.6245 40.1892 17.3859 39.8739L19.6061 38.9543C20.3672 38.639 20.7916 37.7995 20.5927 37.0018C20.4753 36.5305 20.3498 36.0458 20.2196 35.56C20.9016 35.021 21.5202 34.4023 22.0598 33.7192C22.5424 33.8487 23.0273 33.9741 23.502 34.0924C24.2997 34.2914 25.1391 33.8671 25.4545 33.1057L26.3741 30.8855C26.6893 30.1241 26.3956 29.2306 25.6911 28.8072ZM23.8373 32.3307C23.3813 32.2165 22.9165 32.0957 22.4543 31.9712C21.7999 31.7952 21.1094 32.0252 20.695 32.5577C20.2188 33.1694 19.6676 33.7206 19.0569 34.1962C18.5251 34.6104 18.2953 35.3007 18.4715 35.9547C18.5967 36.4199 18.7174 36.8844 18.8309 37.3372L16.7902 38.1824C16.5474 37.7774 16.3044 37.3636 16.0668 36.9508C15.7287 36.3638 15.0781 36.0384 14.4093 36.1213C13.6412 36.2167 12.8616 36.2166 12.0926 36.1209C11.4219 36.0376 10.7718 36.3629 10.4338 36.9501C10.1934 37.3676 9.95023 37.7817 9.71015 38.1824L7.66937 37.337C7.78351 36.8818 7.90429 36.417 8.02898 35.9541C8.20515 35.2999 7.97492 34.6092 7.4425 34.1948C6.83078 33.7186 6.27961 33.1675 5.80398 32.5569C5.38992 32.0249 4.69961 31.7952 4.04539 31.9713C3.58265 32.0959 3.11805 32.2167 2.66297 32.3308L1.81766 30.2901C2.22078 30.0484 2.63476 29.8053 3.0493 29.5666C3.6364 29.2286 3.96203 28.5781 3.8789 27.9092C3.78336 27.1411 3.78359 26.3616 3.87914 25.5924C3.96258 24.9229 3.63719 24.2717 3.04976 23.9336C2.63539 23.695 2.22133 23.4519 1.81758 23.2098L2.66289 21.1691C3.11758 21.283 3.58226 21.4038 4.04586 21.5286C4.69992 21.7048 5.39055 21.4745 5.80523 20.9421C6.2814 20.3304 6.83258 19.7791 7.44312 19.3037C7.975 18.8895 8.20476 18.1991 8.02859 17.5449C7.90437 17.0837 7.78359 16.6191 7.66914 16.1626L9.70992 15.3173C9.95086 15.7194 10.194 16.1333 10.4333 16.549C10.7714 17.1361 11.4226 17.4622 12.0908 17.3785C12.8585 17.283 13.638 17.283 14.4077 17.3789C15.0777 17.4623 15.7284 17.1366 16.0664 16.5494C16.3049 16.1351 16.5481 15.721 16.79 15.3173L18.8308 16.1626C18.7166 16.6183 18.5958 17.083 18.4712 17.5456C18.295 18.1998 18.5252 18.8905 19.0577 19.3049C19.6693 19.7811 20.2205 20.3322 20.6962 20.9428C21.1102 21.4746 21.8003 21.7044 22.4548 21.5283C22.9173 21.4037 23.3818 21.283 23.8372 21.1688L24.6824 23.2095C24.2798 23.4509 23.8659 23.6939 23.4508 23.933C22.8637 24.271 22.538 24.9216 22.6212 25.5905C22.7167 26.3582 22.7166 27.1378 22.6208 27.9074C22.5375 28.577 22.863 29.228 23.4502 29.5661C23.864 29.8043 24.278 30.0474 24.6824 30.2898L23.8373 32.3307Z" fill="#343B3B"></path> <path d="M18.8876 24.415C18.8876 24.415 18.8876 24.415 18.8876 24.4149C17.6001 21.3064 14.0238 19.8249 10.9148 21.1125C7.80639 22.4001 6.32482 25.9767 7.61248 29.0852C8.23615 30.5912 9.40912 31.7639 10.9149 32.3877C11.6678 32.6995 12.4589 32.8555 13.25 32.8555C14.0411 32.8555 14.8322 32.6995 15.5852 32.3877C18.6936 31.1001 20.1751 27.5236 18.8876 24.415ZM14.9 30.7335C13.8361 31.1742 12.6643 31.1741 11.6001 30.7335C10.5361 30.2928 9.70748 29.464 9.2667 28.4001C8.35677 26.2037 9.40365 23.6765 11.6001 22.7667C12.138 22.5439 12.6955 22.4384 13.2444 22.4384C14.9372 22.4384 16.5464 23.4415 17.2335 25.1001C18.1433 27.2965 17.0964 29.8237 14.9 30.7335Z" fill="#343B3B"></path> <path d="M38.793 7.88562C38.484 7.83937 38.1666 7.79445 37.8469 7.7518C37.6858 7.21609 37.4706 6.69672 37.2052 6.20344C37.4008 5.94758 37.5936 5.69125 37.7799 5.43945C38.1936 4.88 38.1337 4.08656 37.6409 3.59391L36.4059 2.35906C35.913 1.86609 35.1195 1.80633 34.5602 2.22016C34.3076 2.40711 34.0513 2.59984 33.7962 2.79477C33.303 2.5293 32.7837 2.31414 32.2479 2.15297C32.2051 1.83328 32.1604 1.51586 32.1141 1.20687C32.0112 0.518906 31.408 0 30.7109 0H28.9644C28.2673 0 27.6641 0.518906 27.5612 1.2068C27.515 1.51562 27.4701 1.83312 27.4274 2.15289C26.8916 2.31406 26.3722 2.52922 25.8791 2.79469C25.6241 2.59969 25.3677 2.40687 25.1152 2.22008C24.5557 1.80625 23.7623 1.86602 23.2695 2.35891L22.0347 3.59367C21.5417 4.08648 21.4818 4.88 21.8956 5.43953C22.0818 5.69125 22.2746 5.94766 22.4701 6.20344C22.2048 6.69664 21.9896 7.21594 21.8284 7.7518C21.5088 7.79453 21.1913 7.83937 20.8823 7.88562C20.1943 7.98859 19.6754 8.5918 19.6754 9.28891V11.0354C19.6754 11.7324 20.1941 12.3357 20.8822 12.4387C21.1912 12.4849 21.5087 12.5298 21.8284 12.5725C21.9895 13.1083 22.2047 13.6276 22.4701 14.1209C22.2747 14.3765 22.0819 14.6327 21.8953 14.8848C21.4817 15.4441 21.5415 16.2377 22.0344 16.7303L23.2694 17.9653C23.7622 18.4583 24.5556 18.518 25.115 18.1042C25.3677 17.9174 25.6239 17.7245 25.8789 17.5297C26.3723 17.7952 26.8916 18.0103 27.4273 18.1714C27.4699 18.491 27.5148 18.8085 27.5611 19.1176C27.6641 19.8055 28.2673 20.3245 28.9644 20.3245H30.7109C31.408 20.3245 32.0112 19.8057 32.1141 19.1175C32.1603 18.8084 32.2051 18.491 32.2479 18.1713C32.7837 18.0103 33.303 17.795 33.7962 17.5295C34.0512 17.7245 34.3076 17.9173 34.5602 18.1042C35.1194 18.518 35.913 18.4583 36.4058 17.9654L37.6408 16.7305C38.1337 16.2377 38.1935 15.4442 37.7797 14.8848C37.5933 14.6327 37.4005 14.3763 37.2052 14.1209C37.4705 13.6277 37.6857 13.1085 37.8469 12.5726C38.1665 12.5298 38.484 12.485 38.793 12.4388C39.481 12.3358 39.9999 11.7326 39.9999 11.0355V9.28898C39.9998 8.59188 39.481 7.98859 38.793 7.88562ZM38.2989 10.7923C38.0183 10.833 37.7319 10.8726 37.4447 10.91C36.8765 10.9841 36.4113 11.3874 36.2599 11.9373C36.1148 12.4637 35.9043 12.9718 35.6342 13.4473C35.3521 13.9436 35.3956 14.5578 35.7451 15.0123C35.9212 15.2413 36.096 15.4719 36.2661 15.6997L35.3751 16.5907C35.1466 16.4202 34.9161 16.2455 34.6875 16.0697C34.2333 15.7201 33.6189 15.6769 33.1225 15.9587C32.6469 16.2288 32.1389 16.4394 31.6127 16.5845C31.0626 16.736 30.6593 17.2012 30.5854 17.7692C30.548 18.0565 30.5085 18.3429 30.4677 18.6235H29.2076C29.1669 18.3429 29.1274 18.0566 29.0899 17.7695C29.0158 17.2013 28.6126 16.7361 28.0626 16.5845C27.5362 16.4395 27.0284 16.229 26.5527 15.9588C26.0562 15.6768 25.4419 15.7202 24.9877 16.0697C24.7591 16.2455 24.5287 16.4202 24.3 16.5907L23.4091 15.6997C23.5791 15.4716 23.7538 15.2413 23.9302 15.012C24.2794 14.5577 24.323 13.9434 24.0409 13.4471C23.7709 12.9716 23.5603 12.4635 23.4152 11.9372C23.2637 11.3872 22.7987 10.984 22.2305 10.9098C21.9432 10.8723 21.6568 10.833 21.3762 10.7921V9.53211C21.6568 9.49141 21.9431 9.45187 22.2304 9.41445C22.7986 9.34031 23.2637 8.93703 23.4152 8.38719C23.5602 7.86078 23.7707 7.35273 24.0409 6.87719C24.323 6.38086 24.2794 5.76656 23.9302 5.31227C23.7537 5.08289 23.579 4.85242 23.4091 4.62477L24.3 3.73375C24.5285 3.9043 24.759 4.07898 24.9875 4.25469C25.4416 4.6043 26.0559 4.64789 26.5527 4.36578C27.028 4.0957 27.5362 3.88516 28.0624 3.74C28.6126 3.58844 29.0159 3.12328 29.0898 2.55523C29.1273 2.26797 29.1668 1.98164 29.2075 1.70102H30.4677C30.5084 1.98156 30.5478 2.26789 30.5852 2.555C30.6594 3.12328 31.0627 3.58844 31.6126 3.73992C32.139 3.885 32.6471 4.09562 33.1226 4.3657C33.6191 4.64781 34.2334 4.60398 34.6874 4.25477C34.9161 4.07898 35.1465 3.9043 35.3751 3.73375L36.2661 4.62477C36.0962 4.8525 35.9215 5.08305 35.745 5.3125C35.3957 5.76672 35.3523 6.38094 35.6341 6.87727C35.9042 7.35289 36.1148 7.86102 36.2598 8.38727C36.4113 8.93727 36.8764 9.34047 37.4446 9.41461C37.7319 9.45211 38.0183 9.49156 38.2989 9.53234V10.7923Z" fill="#343B3B"></path> <path d="M29.8379 6.53711C27.839 6.53711 26.2128 8.16328 26.2128 10.1622C26.2128 12.1612 27.839 13.7873 29.8379 13.7873C31.8368 13.7873 33.463 12.1612 33.463 10.1622C33.463 8.16328 31.8368 6.53711 29.8379 6.53711ZM29.8379 12.1759C28.7276 12.1759 27.8242 11.2725 27.8242 10.1621C27.8242 9.05172 28.7276 8.14844 29.8379 8.14844C30.9482 8.14844 31.8515 9.0518 31.8515 10.1621C31.8515 11.2725 30.9482 12.1759 29.8379 12.1759Z" fill="#343B3B"></path> </g> <defs> <clipPath id="clip0"> <rect width="40" height="40" fill="white"></rect> </clipPath> </defs> </svg> 