<?xml version="1.0" encoding="UTF-8"?> <svg xmlns="http://www.w3.org/2000/svg" width="40" height="40" viewBox="0 0 40 40" fill="none"> <path d="M34.1421 5.85789C30.3647 2.08039 25.3422 0 20 0C14.6578 0 9.63539 2.08039 5.85789 5.85789C2.08039 9.63539 0 14.6578 0 20C0 25.3422 2.08039 30.3646 5.85789 34.1421C9.63539 37.9196 14.6578 40 20 40C25.3422 40 30.3647 37.9196 34.1421 34.1421C37.9196 30.3646 40 25.3422 40 20C40 14.6578 37.9196 9.63539 34.1421 5.85789ZM29.3734 8.59617L30.2527 4.94367C33.7537 7.33523 36.3815 10.9145 37.5513 15.0966L37.0908 15.1852C36.403 15.3175 35.8495 15.8422 35.6809 16.5221L35.5023 17.2423C35.5003 17.2504 35.499 17.2557 35.4859 17.2603C35.473 17.2649 35.4686 17.2616 35.4619 17.2566L34.3948 16.4564C33.8416 16.0416 33.0885 15.9807 32.4762 16.3014L31.1445 16.9986C30.5058 17.333 30.1366 17.9877 30.1809 18.7074C30.2253 19.427 30.6721 20.0315 31.3473 20.285L31.4105 20.3087C31.4177 20.3114 31.4231 20.3134 31.4264 20.3265C31.4297 20.3395 31.426 20.3438 31.4208 20.3497L30.5912 21.3037C30.5829 21.3132 30.5685 21.3154 30.5577 21.3084L28.3218 19.8657C27.8091 19.5348 27.1699 19.485 26.6123 19.7327C26.0546 19.9804 25.6627 20.4877 25.5643 21.0898L25.3918 22.1439C25.2943 22.7389 25.499 23.3402 25.9394 23.7522L27.1055 24.8434C27.1147 24.852 27.1163 24.8659 27.1094 24.8763L25.2089 27.7572C25.0281 28.0313 24.9255 28.3498 24.9123 28.6782L24.7473 32.8027C24.7471 32.8091 24.7444 32.8153 24.7396 32.8199L22.2087 35.3006C22.2004 35.3088 22.1875 35.3104 22.1776 35.3045L20.5365 34.3432C20.5302 34.3395 20.5258 34.3334 20.5243 34.3265C20.5243 34.3265 19.7281 30.7137 19.6984 30.6336L18.9745 28.6908C18.7327 28.0417 18.1306 27.5836 17.4408 27.5237L14.1281 27.2355C14.1198 27.2348 14.1123 27.2302 14.108 27.2227L12.2235 23.9734C12.2205 23.9684 12.2195 23.9623 12.2203 23.9566L12.6943 20.8053C12.6953 20.7986 12.6988 20.7926 12.7042 20.7885L15.5977 18.6053C15.6051 18.5998 15.6148 18.5987 15.6233 18.6021L18.427 19.7718C18.5866 19.8383 18.7547 19.8815 18.9263 19.9002L22.8096 20.3223C23.2523 20.3704 23.6939 20.2541 24.0552 19.9951L26.628 18.1509C27.3212 17.6541 27.5719 16.7284 27.2241 15.9496L26.9855 15.4154C26.7085 14.7954 26.1152 14.3872 25.4373 14.3502L18.2118 13.9545C18.2079 13.9543 18.204 13.9531 18.2005 13.9512C18.1932 13.947 18.1893 13.9437 18.1889 13.9437V13.9437C18.1854 13.9356 18.188 13.9151 18.1922 13.9094C18.1933 13.9087 18.1978 13.9063 18.2066 13.9038L20.3759 13.3191C20.6628 13.2418 20.9286 13.0932 21.1445 12.8895L23.7973 10.3861C23.8013 10.3823 23.8066 10.3798 23.8122 10.3792L27.8047 9.96805C28.5643 9.88992 29.1947 9.33867 29.3734 8.59617ZM15.8498 7.12844L17.3423 4.31922C17.5629 3.90398 17.6324 3.42164 17.5379 2.96109L17.3352 1.9732C18.2053 1.84508 19.0948 1.77781 19.9999 1.77781C20.9127 1.77781 21.8098 1.84617 22.687 1.97633C22.687 1.97633 22.4732 2.21008 22.4362 2.22484L20.3224 3.07273C20.0204 3.19398 19.7488 3.38875 19.5371 3.63609L16.2436 7.48563C16.1988 7.53797 16.1337 7.56961 16.0648 7.57258C15.9602 7.57719 15.8955 7.51945 15.8653 7.48586C15.7482 7.35555 15.8384 7.15016 15.8498 7.12844ZM8.08 6.22797V8.89508C8.08 9.64 7.70664 10.3262 7.0818 10.7315L5.16797 11.9734C4.72445 12.2613 4.34844 12.6284 4.05062 13.0649L2.31359 15.6102C3.23242 11.9092 5.28445 8.65094 8.08 6.22797ZM9.2418 32.4676L8.99 34.5097C6.14062 32.3423 3.94609 29.3567 2.7607 25.9058H3.89242C4.03109 25.9058 4.15906 25.976 4.23375 26.0924L6.52086 29.656C6.62398 29.816 6.74664 29.9618 6.88711 30.0898L9.11203 32.1191C9.20891 32.2071 9.25781 32.3378 9.2418 32.4676ZM20 38.2222C16.5813 38.2222 13.38 37.2751 10.6432 35.6306L11.0063 32.6853C11.0925 31.984 10.832 31.2809 10.3102 30.8053C10.3102 30.8053 8.03648 28.7253 8.01687 28.6959L5.72977 25.1324C5.32617 24.5031 4.63906 24.128 3.89242 24.128H2.24945C1.94102 22.8011 1.77773 21.4192 1.77773 20C1.77773 19.8467 1.77977 19.6941 1.78352 19.5417L5.51906 14.0676C5.68352 13.8258 5.89062 13.6231 6.13594 13.4641L8.04883 12.2232C9.18125 11.489 9.85773 10.2445 9.85773 8.89523V4.86844C11.5834 3.70797 13.5177 2.83539 15.5912 2.3182L15.7964 3.31828C15.808 3.37492 15.7995 3.43422 15.7723 3.48516L14.28 6.2943C14.1867 6.46969 14.0659 6.93094 14.0659 6.93094C13.9447 7.54438 14.1086 8.16844 14.5156 8.64313C14.9038 9.09586 15.4598 9.3507 16.0523 9.3507C16.0812 9.3507 16.9406 9.39266 17.5944 8.64148L20.8878 4.79219C20.9138 4.76172 20.9473 4.73773 20.9844 4.72289L23.098 3.87508C23.3987 3.75453 23.6691 3.56102 23.8802 3.31555L24.678 2.38781C26.0825 2.76125 27.4212 3.2975 28.6716 3.97687C28.6509 4.02406 27.6448 8.18031 27.6448 8.18031C27.6423 8.19086 27.6333 8.19875 27.6224 8.19984L23.6297 8.61102C23.2373 8.65148 22.8634 8.82273 22.5767 9.09336L19.9239 11.5967C19.9209 11.5995 19.9172 11.6017 19.913 11.6027L17.7437 12.1874C17.0359 12.3781 16.518 12.9712 16.4243 13.6981C16.3305 14.4251 16.681 15.13 17.3173 15.4942C17.5598 15.633 17.8355 15.7144 18.1145 15.7297L25.34 16.1253C25.3496 16.1259 25.3581 16.1317 25.362 16.1405L25.6006 16.6746C25.6056 16.6857 25.602 16.699 25.592 16.7061L23.0192 18.5502C23.0141 18.554 23.008 18.5556 23.0016 18.5549L19.1112 18.1311L16.3078 16.9616C15.7188 16.7157 15.0366 16.802 14.5271 17.1862L11.6335 19.3695C11.2546 19.6555 11.007 20.0715 10.9365 20.5409L10.4624 23.6923C10.4018 24.0958 10.4812 24.5123 10.6858 24.8652L12.5704 28.1148C12.8648 28.6224 13.3896 28.9559 13.9743 29.0068L17.287 29.2949C17.2968 29.2958 17.3055 29.3023 17.3089 29.3116L18.0337 31.258L18.7877 34.7065C18.895 35.1968 19.2049 35.6235 19.638 35.8773L21.2791 36.8388C21.562 37.0045 21.8764 37.0852 22.1889 37.0852C22.6502 37.0852 23.1076 36.9091 23.4532 36.5705L25.9841 34.0898C26.3138 33.7666 26.5054 33.3348 26.5238 32.8737L26.6887 28.7496C26.6889 28.7448 26.6903 28.7402 26.693 28.7364L28.5936 25.8555C29.079 25.1195 28.964 24.148 28.3202 23.5456L27.154 22.4545C27.1477 22.4486 27.1448 22.44 27.1462 22.4315L27.3188 21.3773C27.3202 21.3687 27.3209 21.3636 27.3338 21.3579C27.3462 21.3522 27.3507 21.3551 27.3581 21.3598L29.5939 22.8024C30.3425 23.2855 31.3479 23.143 31.9327 22.4705L32.7622 21.5166C33.1498 21.0709 33.2947 20.463 33.1498 19.8905C33.0048 19.318 32.5883 18.8523 32.0351 18.6446L31.972 18.6209C31.9638 18.6179 31.9598 18.6152 31.9596 18.6152C31.9547 18.6085 31.9536 18.5884 31.957 18.5818C31.9577 18.581 31.9615 18.5779 31.9691 18.5739L33.3008 17.8766C33.3096 17.872 33.3202 17.8729 33.3281 17.8788L34.3952 18.6791C34.8804 19.043 35.5111 19.1387 36.0823 18.9352C36.6535 18.7319 37.0817 18.2591 37.2277 17.6705L37.4064 16.9504C37.4087 16.9407 37.4166 16.9331 37.4266 16.9312L37.9459 16.8314C38.1273 17.8609 38.2225 18.9196 38.2225 20.0002C38.2222 30.0478 30.0477 38.2222 20 38.2222Z" fill="#343B3B"></path> </svg> 