<?xml version="1.0" encoding="UTF-8"?> <svg xmlns="http://www.w3.org/2000/svg" baseProfile="tiny-ps" viewBox="0 0 80 52" width="80" height="52"> <title>Primary g-svg</title> <style> tspan { white-space:pre } .shp0 { fill: #2c3739 } </style> <g id="Layer"> <path id="Layer" class="shp0" d="M4.9 51.9L4.7 51.9L4.5 51.9L4.2 51.9L3.9 51.8C3.9 51.7 4 51.7 4 51.6C4 51.5 4.1 51.5 4.2 51.4C4.3 51.3 4.3 51.3 4.4 51.3C4.5 51.3 4.6 51.3 4.7 51.3L4.8 51.3C5.1 51.3 5.3 51.2 5.6 51.1C5.8 51 6 50.8 6.2 50.6C6.4 50.4 6.5 50.1 6.5 49.9C6.6 49.6 6.6 49.3 6.6 48.9C6.6 48.6 6.6 48.3 6.5 48C6.4 47.7 6.3 47.5 6.1 47.3C5.9 47.1 5.7 46.9 5.4 46.8C5.1 46.7 4.7 46.6 4.4 46.6L4 46.6L3.6 46.6L3.6 51.8L2.6 51.8L2.6 46.1C2.9 46 3.3 46 3.6 45.9C3.9 45.9 4.2 45.9 4.4 45.9C4.9 45.9 5.3 46 5.8 46.1C6.2 46.2 6.5 46.4 6.8 46.7C7.1 47 7.3 47.3 7.5 47.7C7.7 48.1 7.7 48.5 7.7 49C7.7 49.4 7.6 49.8 7.4 50.2C7.3 50.6 7.1 50.9 6.8 51.2C6.5 51.5 6.2 51.7 5.9 51.8C5.7 51.8 5.3 51.9 4.9 51.9Z"></path> <path id="Layer" fill-rule="evenodd" class="shp0" d="M10.1 51.8L10.1 46L13.6 46L13.6 46.7L11.2 46.7L11.2 51.1L13.8 51.1L13.8 51.8L10.1 51.8ZM12.2 48.4L13.3 48.4L13.3 49.1L11.4 49.1C11.4 49 11.5 48.9 11.5 48.8C11.5 48.7 11.6 48.6 11.7 48.6C11.8 48.5 11.8 48.5 11.9 48.4C12 48.4 12.1 48.4 12.2 48.4Z"></path> <path id="Layer" class="shp0" d="M19 51.8L18 51.8L15.9 46L17 46L18.5 50.6L18.6 50.9L18.6 50.6L20 46L21 46L19 51.8Z"></path> <path id="Layer" fill-rule="evenodd" class="shp0" d="M23.4 51.8L23.4 46L26.9 46L26.9 46.7L24.5 46.7L24.5 51.1L27.1 51.1L27.1 51.8L23.4 51.8ZM25.4 48.4L26.5 48.4L26.5 49.1L24.6 49.1C24.6 49 24.7 48.9 24.7 48.8C24.7 48.7 24.8 48.6 24.8 48.6C24.9 48.5 24.9 48.5 25 48.4C25.2 48.4 25.3 48.4 25.4 48.4Z"></path> <path id="Layer" class="shp0" d="M29.7 51.8L29.7 46L30.7 46L30.7 51.1L32.9 51.1L32.9 51.8L29.7 51.8Z"></path> <path id="Layer" fill-rule="evenodd" class="shp0" d="M35.2 48.9C35.2 48.5 35.3 48 35.4 47.6C35.5 47.2 35.7 46.9 36 46.6C36.3 46.3 36.6 46.1 36.9 46C37.3 45.8 37.6 45.8 38 45.8C38.4 45.8 38.9 45.9 39.3 46.1C39.6 46.3 39.9 46.5 40.2 46.8C40.4 47.1 40.6 47.4 40.7 47.8C40.8 48.2 40.9 48.5 40.9 48.9C40.9 49.3 40.8 49.7 40.7 50.1C40.6 50.5 40.4 50.8 40.1 51.1C39.6 51.7 38.8 52 38 52C37.6 52 37.2 51.9 36.8 51.8C36.5 51.7 36.2 51.4 35.9 51.2C35.6 50.9 35.4 50.6 35.3 50.2C35.3 49.7 35.2 49.3 35.2 48.9ZM36.4 49.8C36.5 50.1 36.6 50.3 36.7 50.5C36.8 50.7 37 50.9 37.2 51C37.4 51.1 37.7 51.2 38 51.2C38.2 51.2 38.5 51.1 38.7 51C38.9 50.9 39.1 50.7 39.3 50.5C39.5 50.3 39.6 50 39.7 49.8C39.8 49.5 39.9 49.1 39.8 48.8C39.8 48.5 39.8 48.2 39.7 47.9C39.6 47.6 39.5 47.4 39.3 47.2C39.2 47 39 46.8 38.7 46.7C38.5 46.6 38.2 46.5 38 46.5C37.7 46.5 37.5 46.6 37.3 46.7C37.1 46.8 36.9 47 36.8 47.2C36.6 47.4 36.5 47.7 36.4 47.9C36.3 48.2 36.3 48.6 36.3 48.9C36.3 49.2 36.3 49.5 36.4 49.8Z"></path> <path id="Layer" class="shp0" d="M47.6 47.6C47.6 47.8 47.6 48.1 47.4 48.3C47.3 48.5 47.2 48.7 47 48.8C46.8 49 46.6 49.1 46.4 49.2C46.2 49.3 45.9 49.3 45.7 49.4L45.3 49.4C45.2 49.4 45 49.4 44.9 49.3C44.9 49.2 45 49.2 45 49.1C45 49 45.1 49 45.2 48.9C45.3 48.8 45.3 48.8 45.4 48.7C45.5 48.7 45.6 48.6 45.6 48.6C45.7 48.6 45.8 48.6 45.9 48.5C46 48.4 46.1 48.4 46.2 48.3C46.3 48.2 46.4 48.1 46.4 48C46.5 47.9 46.5 47.7 46.5 47.6C46.5 47.5 46.5 47.3 46.4 47.2C46.3 47.1 46.3 47 46.1 46.9C46 46.8 45.9 46.7 45.7 46.7C45.5 46.6 45.4 46.6 45.2 46.6L44.8 46.6L44.4 46.6L44.4 51.8L43.4 51.8L43.4 46.1L43.9 46L44.3 45.9L45 45.9L45.4 45.9C45.7 45.9 46 45.9 46.3 46C46.6 46.1 46.8 46.2 47 46.4C47.4 46.7 47.6 47.2 47.6 47.6Z"></path> <path id="Layer" class="shp0" d="M50.1 51.8L50.7 45.9L52 45.9L53.4 50.5L53.5 50.8L53.6 50.5L55 45.9L56.3 45.9L56.9 51.8L56 51.8L55.6 47.3L55.6 46.9L55.5 47.3L54 51.7L53 51.7L51.6 47.2L51.5 46.8L51.1 51.7L50.1 51.7L50.1 51.8Z"></path> <path id="Layer" fill-rule="evenodd" class="shp0" d="M59.7 51.8L59.7 46L63.2 46L63.2 46.7L60.7 46.7L60.7 51.1L63.3 51.1L63.3 51.8L59.7 51.8ZM61.8 48.4L62.9 48.4L62.9 49.1L61 49.1C61 49 61.1 48.9 61.1 48.8C61.1 48.7 61.2 48.6 61.3 48.6C61.4 48.5 61.4 48.5 61.5 48.4C61.6 48.4 61.7 48.4 61.8 48.4Z"></path> <path id="Layer" class="shp0" d="M69.8 51.8L68.4 49.6C68 48.9 67.5 48.2 67 47.4L67 47.2L67 51.8L66.2 51.8L66.2 46L67.2 46L69.7 49.9L69.8 50L69.9 50.1L70 50.4L70 46L70.9 46L70.9 51.9L69.8 51.9L69.8 51.8Z"></path> <path id="Layer" class="shp0" d="M74.8 46.7L73.2 46.7L73.2 46L77.4 46L77.4 46.7L75.8 46.7L75.8 51.8L74.8 51.8L74.8 46.7Z"></path> <path id="Layer" class="shp0" d="M60.5 21.1L77.4 3.9L77.4 1.2L60.5 18.4L42 0.1L37.5 4.6L2.6 4.6L2.6 6.5L35.6 6.5L5.2 37.1L5.2 37.1L5.2 39L77.4 39L77.4 37.1L7.8 37.1L42 2.7L60.5 21.1Z"></path> </g> </svg> 