<?xml version="1.0" encoding="UTF-8"?> <svg xmlns="http://www.w3.org/2000/svg" width="40" height="40" viewBox="0 0 40 40" fill="none"> <path d="M35.7528 10.5221C33.4109 10.5221 31.5057 12.4273 31.5057 14.7692C31.5057 15.6233 31.76 16.4187 32.1956 17.0853L27.6071 21.6738C26.9404 21.2382 26.145 20.9839 25.2909 20.9839C24.4058 20.9839 23.5832 21.2564 22.9021 21.7215L18.2664 17.085C18.7019 16.4184 18.9561 15.6231 18.9561 14.7691C18.9561 12.4272 17.0508 10.522 14.709 10.522C12.3671 10.522 10.4619 12.4272 10.4619 14.7691C10.4619 15.6231 10.7161 16.4181 11.1515 17.0848L6.5628 21.6735C5.89624 21.238 5.10101 20.9839 4.2471 20.9839C1.90523 20.9839 0 22.8892 0 25.2311C0 27.573 1.90523 29.4782 4.2471 29.4782C6.58897 29.4782 8.4942 27.573 8.4942 25.2311C8.4942 24.3769 8.23991 23.5816 7.80428 22.9148L12.3928 18.3263C13.0595 18.762 13.8549 19.0163 14.709 19.0163C15.5631 19.0163 16.3585 18.762 17.0251 18.3263L21.6865 22.9884C21.2798 23.6398 21.0439 24.4082 21.0439 25.231C21.0439 27.5729 22.9491 29.4781 25.291 29.4781C27.6328 29.4781 29.5381 27.5729 29.5381 25.231C29.5381 24.377 29.2838 23.5819 28.8485 22.9153L33.4372 18.3266C34.1038 18.762 34.8991 19.0162 35.7529 19.0162C38.0948 19.0162 40 17.1109 40 14.7691C40 12.4271 38.0947 10.5221 35.7528 10.5221ZM4.2471 27.7226C2.8732 27.7226 1.75547 26.6049 1.75547 25.2311C1.75547 23.8572 2.8732 22.7394 4.2471 22.7394C5.62093 22.7394 6.73874 23.8572 6.73874 25.2311C6.73874 26.6049 5.62101 27.7226 4.2471 27.7226ZM14.709 17.2607C13.3352 17.2607 12.2174 16.143 12.2174 14.7691C12.2174 13.3952 13.3351 12.2774 14.709 12.2774C16.0829 12.2774 17.2007 13.3952 17.2007 14.7691C17.2007 16.143 16.0829 17.2607 14.709 17.2607ZM25.2909 27.7226C23.9171 27.7226 22.7993 26.6049 22.7993 25.231C22.7993 23.8571 23.917 22.7394 25.2909 22.7394C26.6647 22.7394 27.7825 23.8571 27.7825 25.231C27.7824 26.6049 26.6647 27.7226 25.2909 27.7226ZM35.7528 17.2607C34.379 17.2607 33.2612 16.143 33.2612 14.7691C33.2612 13.3952 34.3789 12.2774 35.7528 12.2774C37.1266 12.2774 38.2445 13.3952 38.2445 14.7691C38.2445 16.143 37.1266 17.2607 35.7528 17.2607Z" fill="#343B3B"></path> <path d="M13.8104 21.3059C13.4676 20.9631 12.9119 20.9631 12.5691 21.3059L10.7836 23.0913C10.4409 23.4341 10.4409 23.9899 10.7837 24.3327C10.9551 24.5041 11.1797 24.5898 11.4043 24.5898C11.6289 24.5898 11.8536 24.504 12.0249 24.3327L13.8104 22.5472C14.1533 22.2045 14.1533 21.6486 13.8104 21.3059Z" fill="#343B3B"></path> <path d="M29.2157 15.6982C28.8729 15.3555 28.3173 15.3555 27.9743 15.6983L26.1889 17.4838C25.8461 17.8265 25.8461 18.3823 26.1889 18.7251C26.3604 18.8964 26.585 18.9821 26.8096 18.9821C27.0343 18.9821 27.2588 18.8963 27.4302 18.725L29.2157 16.9395C29.5585 16.5967 29.5585 16.0409 29.2157 15.6982Z" fill="#343B3B"></path> </svg> 