<?xml version="1.0" encoding="UTF-8"?> <svg xmlns="http://www.w3.org/2000/svg" width="80" height="80" viewBox="0 0 80 80" fill="none"> <path d="M75.4821 10.7544L72.0635 7.74413L75.4821 4.73449C76.0137 4.26574 76.1956 3.53515 75.946 2.87231C75.6951 2.20886 75.0756 1.78039 74.367 1.78039H60.2203V1.17248C60.2203 0.524901 59.6954 0 59.0478 0C58.4002 0 57.8753 0.524901 57.8753 1.17248V16.9854L48.2458 22.2143C48.1927 21.7907 48.0658 21.3745 47.865 20.9826L46.5082 18.3337C45.5768 16.5149 43.3392 15.794 41.5216 16.7248L40.4724 17.2619C39.5911 17.7136 38.9386 18.4802 38.6346 19.4226C38.3307 20.3643 38.4119 21.3684 38.8635 22.2491L40.2203 24.8986C40.5371 25.5169 41.0052 26.0064 41.5558 26.3494C40.8356 27.3193 40.4938 28.5119 40.1422 29.7509L39.8895 30.6457C39.7131 31.2689 40.0757 31.9171 40.6988 32.0928C40.805 32.1233 40.9125 32.1374 41.0181 32.1374C41.5295 32.1374 41.9995 31.8005 42.146 31.2835L42.3987 30.3906C42.9126 28.5784 43.2281 27.608 44.2328 27.0623L46.0339 26.0839L46.2561 25.9704C46.3299 25.9326 46.3989 25.8898 46.4691 25.8477L59.306 18.8769C59.2248 20.4815 58.3612 21.9976 56.939 22.8613L48.5913 27.9333C48.5815 27.9388 48.5717 27.9443 48.5626 27.9504L45.9643 29.5287C45.4114 29.8651 45.235 30.5865 45.5713 31.1401C45.888 31.6619 46.5472 31.8475 47.0849 31.5856L45.1135 37.5451L43.6725 38.1359L39.754 39.7417L40.8832 35.7501C41.0589 35.1269 40.697 34.4787 40.0738 34.3023C39.4501 34.1253 38.8025 34.4885 38.6261 35.1116L36.842 41.4208C36.8188 41.502 36.8036 41.5911 36.7999 41.6759L36.333 50.2526C36.319 50.5797 36.3885 51.198 36.2372 51.5172L31.0516 62.4266H27.2833C25.0757 62.4266 23.2801 64.2223 23.2801 66.4293V69.8137C22.7747 69.5824 22.2138 69.453 21.6223 69.453H12.0527C9.84563 69.453 8.04998 71.248 8.04998 73.4557V77.6549H5.23504C4.58746 77.6549 4.06256 78.1798 4.06256 78.8274C4.06256 79.4749 4.58746 79.9998 5.23504 79.9998H74.3658C75.0133 79.9998 75.5382 79.4749 75.5382 78.8274C75.5382 78.1798 75.0133 77.6549 74.3658 77.6549H71.3165V47.4334C71.3165 45.2263 69.5208 43.4307 67.3138 43.4307H60.2203V22.976C61.5203 21.2139 62.0019 18.9044 61.3983 16.7096C61.3037 16.3647 61.0565 16.0815 60.7269 15.9417C60.5651 15.8728 60.3918 15.8423 60.2203 15.849V13.7085H74.3664C75.0756 13.7085 75.6951 13.28 75.9454 12.6172C76.1956 11.9543 76.0137 11.2231 75.4821 10.7544V10.7544ZM40.8667 20.1428C40.9784 19.7967 41.2176 19.5147 41.5411 19.3493L42.5903 18.8122C42.7881 18.7109 42.9993 18.6627 43.208 18.6627C43.7024 18.6627 44.1803 18.9331 44.4208 19.4024L45.7782 22.052C46.0949 22.6709 45.8899 23.421 45.3265 23.8L44.9444 24.0069L44.1382 24.4201C43.4711 24.7619 42.6495 24.497 42.3077 23.8293L40.9503 21.1804C40.7849 20.8569 40.755 20.4882 40.8667 20.1428V20.1428ZM38.5107 62.7873C38.1122 62.6055 37.6788 62.4864 37.2235 62.4443L38.5107 60.7347V62.7873ZM44.0777 53.3397C44.6417 52.6641 44.7973 51.8749 44.9231 51.2389C44.9548 51.0875 45.5334 47.9272 45.5334 47.9272C45.5334 47.9272 46.0809 48.2683 46.1383 48.2927C46.178 48.3105 46.206 48.3495 46.2103 48.3953L46.8481 54.879H42.9187L44.0777 53.3397ZM51.0113 46.8682L50.0213 54.8735H49.2041L48.5443 48.1658C48.4601 47.3064 47.9339 46.5563 47.1631 46.1834L45.9839 45.4357L46.7694 41.0821C46.7694 41.0821 50.0787 45.0133 50.1556 45.1134C50.8404 46.0039 51.0748 46.3604 51.0113 46.8682ZM38.3465 52.5426C38.5834 51.8297 38.6932 51.104 38.6749 50.3661L39.1009 42.5439L44.5239 40.3216L43.5382 45.7818C43.5351 45.7964 43.5321 45.8117 43.5303 45.8263L42.7148 50.3411C42.6086 50.8086 42.5159 51.5178 42.2241 51.903L34.3011 62.4266H33.6481L38.3465 52.5426ZM10.3949 73.4551C10.3949 72.5414 11.1384 71.798 12.0527 71.798H21.6223C22.5366 71.798 23.2807 72.5414 23.2807 73.4551V77.6549H10.3949V73.4551ZM25.625 73.4551V66.4293C25.625 65.515 26.369 64.7716 27.2833 64.7716H36.853C37.7673 64.7716 38.5107 65.515 38.5107 66.4293V77.6549H25.6256V73.4551H25.625ZM68.9715 47.4334V77.6549H56.0864V70.6249C56.0864 69.9773 55.5615 69.4524 54.9139 69.4524C54.2657 69.4524 53.7408 69.9773 53.7408 70.6249V77.6549H40.8557V58.8811C40.8557 57.9674 41.5991 57.224 42.5134 57.224H52.0831C52.9974 57.224 53.7408 57.9674 53.7408 58.8811V64.7588C53.7408 65.4064 54.2657 65.9313 54.9133 65.9313C55.5615 65.9313 56.0858 65.4064 56.0858 64.7588V47.4334C56.0858 46.5191 56.8298 45.7757 57.7441 45.7757H59.0356C59.0393 45.7757 59.0435 45.7763 59.0478 45.7763C59.0515 45.7763 59.0557 45.7757 59.0594 45.7757H67.3132C68.2275 45.7757 68.9715 46.5197 68.9715 47.4334V47.4334ZM57.7441 43.4307C55.5371 43.4307 53.7414 45.2263 53.7414 47.4334V55.2398C53.3215 55.0481 52.8637 54.9266 52.3822 54.8912L53.3386 47.1569C53.5266 45.6493 52.7575 44.6502 52.0141 43.6834C51.9354 43.5808 47.3779 38.1695 47.3779 38.1695L50.1739 29.7161L57.8753 25.0372V43.4307H57.7441ZM60.2203 11.3629V4.12597H72.6244L69.9529 6.47826C69.5892 6.79869 69.3804 7.26012 69.3804 7.74474C69.3804 8.22935 69.5892 8.69078 69.9529 9.01121L72.6244 11.3635H60.2203V11.3629Z" fill="#343B3B"></path> </svg> 