<?xml version="1.0" encoding="UTF-8"?> <svg xmlns="http://www.w3.org/2000/svg" width="176" height="72" viewBox="0 0 176 72" fill="none"> <path d="M41.9213 8L31.903 60.8592L85.9291 63.2943V19.128L41.9213 8Z" fill="#FDE044"></path> <path fill-rule="evenodd" clip-rule="evenodd" d="M112.055 48.392C113.237 48.8848 114.504 49.1392 115.784 49.1405C117.052 49.1784 118.312 48.9359 119.477 48.4302C120.351 48.0934 121.077 47.4568 121.528 46.6332V48.6539H126.113V21.3987H121.376V31.3967C120.93 30.5842 120.221 29.9496 119.366 29.5984C118.215 29.0908 116.966 28.8477 115.71 28.8867C114.454 28.8889 113.212 29.1434 112.055 29.6353C110.898 30.1246 109.847 30.8365 108.961 31.7309C108.053 32.6575 107.333 33.7514 106.839 34.9526C106.304 36.2582 106.037 37.6586 106.052 39.0701L106.016 38.957C105.999 40.3688 106.266 41.7693 106.802 43.0747C107.296 44.2757 108.016 45.3693 108.924 46.295C109.817 47.1982 110.882 47.9113 112.055 48.392ZM114.107 34.3527C114.822 34.0886 115.581 33.9618 116.343 33.9791C117.443 33.9635 118.531 34.2201 119.51 34.7263C120.317 35.087 120.967 35.7259 121.344 36.5273V41.6578C120.968 42.459 120.318 43.0981 119.512 43.4588C118.533 43.9659 117.445 44.223 116.343 44.2074C115.581 44.2241 114.822 44.0974 114.107 43.8337C113.462 43.5971 112.868 43.2399 112.355 42.7813C111.868 42.3347 111.486 41.7847 111.237 41.1712C110.965 40.5191 110.826 39.8191 110.827 39.1123V39.0742C110.826 38.3673 110.965 37.6675 111.237 37.0154C111.486 36.4017 111.868 35.8517 112.355 35.4052C112.868 34.946 113.462 34.5888 114.107 34.3527ZM77.5332 48.4724C78.2878 48.1134 78.9412 47.5707 79.4341 46.8938L79.4394 46.8569L78.4332 42.5894C78.073 43.0353 77.6275 43.4043 77.1231 43.6747C76.6094 43.9121 76.0481 44.0274 75.4829 44.0115C74.8762 44.0207 74.2845 43.8225 73.8047 43.4497C73.542 43.1964 73.3412 42.8855 73.2183 42.5414C73.0954 42.1972 73.0534 41.829 73.0958 41.4659V34.3528H79.2114V29.2986H73.1339V24.4312H71.6796L65.0806 32.8176V34.3567H68.3559V42.513C68.2476 44.2769 68.8094 46.0163 69.928 47.3805C70.5467 47.9935 71.2899 48.4653 72.1068 48.7633C72.9237 49.0614 73.7951 49.1789 74.6614 49.1078C75.6549 49.1234 76.6382 48.9058 77.5332 48.4724ZM49.8018 48.279C51.12 47.7145 52.2468 46.7782 53.0456 45.5835V45.3218L51.5115 41.0594C50.8221 41.9097 49.9572 42.5995 48.9765 43.0814C47.7033 43.7143 46.2945 44.0229 44.8744 43.9799C43.8749 43.9915 42.8802 43.8396 41.9294 43.53C41.071 43.2437 40.274 42.7974 39.5804 42.2144C38.9058 41.6554 38.3646 40.9516 37.9969 40.1548C37.6291 39.3579 37.4441 38.4883 37.4553 37.6101C37.4456 36.7335 37.6313 35.8658 37.9991 35.0706C38.3668 34.2755 38.9071 33.5731 39.5804 33.015C40.274 32.432 41.071 31.9857 41.9294 31.6994C42.8802 31.3899 43.8749 31.238 44.8744 31.2495C46.2693 31.2189 47.651 31.5273 48.9017 32.1481C49.8852 32.607 50.7614 33.2685 51.4735 34.0897L52.9644 29.9747C52.5996 29.4178 52.1464 28.9245 51.6228 28.5146C51.0375 28.043 50.3995 27.6412 49.7219 27.3174C48.9477 26.9597 48.1341 26.6947 47.2982 26.5282C46.3665 26.3297 45.4168 26.2292 44.4644 26.2281C42.9444 26.2315 41.4387 26.5239 40.0271 27.0898C38.6354 27.6319 37.3576 28.432 36.2605 29.4486C35.1546 30.4919 34.2565 31.7372 33.6141 33.1176C32.9354 34.5824 32.5915 36.1813 32.608 37.7969C32.5915 39.4125 32.9352 41.0114 33.6141 42.4763C34.2445 43.8417 35.1304 45.0726 36.2238 46.1018C37.3206 47.1188 38.5984 47.919 39.9904 48.4606C41.4023 49.0296 42.9089 49.3252 44.4304 49.3315C46.2765 49.386 48.1115 49.0265 49.8018 48.279ZM29.1061 48.5723L26.0484 26.6031H21.3502L15.5714 40.9041L9.79251 26.6031H5.01979L2 48.5723H6.95875L8.82304 36.0367L13.5958 48.5776H17.8078L22.6551 36.0367L24.4028 48.5723H29.1061ZM58.3411 43.4864C58.6472 43.1781 59.013 42.9361 59.4159 42.7751C59.8187 42.6143 60.2502 42.538 60.6836 42.5511C61.117 42.5388 61.5485 42.6154 61.9513 42.7762C62.3543 42.9372 62.7203 43.179 63.0269 43.4869C63.3335 43.7948 63.5743 44.1622 63.7346 44.5669C63.8948 44.9714 63.9711 45.4046 63.9588 45.8399C63.9711 46.2751 63.8948 46.7083 63.7346 47.113C63.5743 47.5175 63.3335 47.885 63.0269 48.193C62.7203 48.5009 62.3543 48.7427 61.9513 48.9035C61.5485 49.0645 61.117 49.1411 60.6836 49.1288C60.2502 49.1409 59.8188 49.0641 59.416 48.9032C59.0132 48.7421 58.6472 48.5003 58.3406 48.1925C58.0341 47.8847 57.7933 47.5172 57.6329 47.1128C57.4726 46.7082 57.3962 46.2751 57.4083 45.8399C57.3953 45.4044 57.4713 44.9709 57.6318 44.5661C57.7922 44.1613 58.0337 43.7939 58.3411 43.4864ZM92.6726 49.1405C91.328 49.1455 89.9964 48.8771 88.758 48.3512C87.5562 47.8446 86.4567 47.1214 85.5141 46.2174C84.5707 45.2979 83.8104 44.2063 83.2739 43.001C82.7153 41.7276 82.4356 40.3484 82.4537 38.957C82.4353 37.5661 82.7151 36.1874 83.2739 34.9145C83.8092 33.7079 84.5686 32.6149 85.5116 31.694C86.4545 30.7911 87.5538 30.0689 88.7553 29.5629C89.9957 29.0439 91.3262 28.7768 92.67 28.7768C94.0137 28.7768 95.3441 29.0439 96.5845 29.5629C97.7863 30.0685 98.8857 30.7908 99.8284 31.694C100.771 32.6148 101.531 33.7078 102.066 34.9145C102.627 36.1869 102.908 37.5656 102.891 38.957V38.9952C102.914 40.3866 102.634 41.7661 102.071 43.0379C101.537 44.2336 100.777 45.3141 99.8335 46.2201C98.8913 47.1244 97.7918 47.8476 96.5898 48.3538C95.3504 48.8791 94.0178 49.1468 92.6726 49.1405ZM92.7433 33.9041C92.0178 33.8933 91.2969 34.0201 90.6183 34.2778C89.9855 34.5163 89.4035 34.8735 88.9033 35.3301C88.4173 35.7738 88.0351 36.3201 87.7845 36.9298C87.5125 37.584 87.3735 38.2863 87.3758 38.9952V39.0701C87.3745 39.7773 87.5135 40.4776 87.7845 41.1303C88.0343 41.7431 88.4165 42.2927 88.9033 42.7391C89.4031 43.1963 89.9851 43.5536 90.6183 43.7916C91.2968 44.0497 92.0178 44.1764 92.7433 44.1652C94.1339 44.1935 95.4822 43.6844 96.5098 42.7432C96.9961 42.2879 97.3886 41.7412 97.6653 41.1343C97.9671 40.4901 98.1202 39.7859 98.1134 39.0742C98.1205 38.3504 97.9675 37.6342 97.6653 36.9772C97.3908 36.3578 96.9982 35.7983 96.5098 35.3301C96.0178 34.8811 95.4494 34.5246 94.8316 34.2778C94.1664 34.0179 93.457 33.891 92.7433 33.9041ZM140.241 49.1445C138.961 49.1434 137.694 48.8891 136.512 48.396C135.34 47.9149 134.275 47.2018 133.381 46.2991C132.473 45.3718 131.753 44.2769 131.259 43.0747C130.73 41.7875 130.463 40.4073 130.473 39.0149C130.462 37.6213 130.73 36.2397 131.259 34.9513C131.753 33.7505 132.473 32.6569 133.38 31.7309C134.273 30.8276 135.339 30.1145 136.512 29.6339C137.694 29.1409 138.961 28.8865 140.241 28.8854C141.509 28.8477 142.769 29.0906 143.933 29.5971C144.807 29.9334 145.533 30.5702 145.983 31.3941V29.3722H150.568V48.6525H145.983V46.6306C145.533 47.4545 144.806 48.0915 143.933 48.4289C142.769 48.9362 141.509 49.1805 140.241 49.1445ZM140.765 33.9818C140.003 33.9646 139.245 34.0919 138.53 34.3567C137.885 34.5928 137.289 34.95 136.778 35.4091C136.29 35.8557 135.908 36.4058 135.659 37.0193C135.387 37.6714 135.247 38.3713 135.248 39.0781V39.1149C135.247 39.8222 135.387 40.5226 135.659 41.1751C135.908 41.7884 136.29 42.3384 136.778 42.7853C137.291 43.2438 137.885 43.601 138.53 43.8378C139.245 44.1015 140.003 44.2283 140.765 44.2113C141.867 44.2267 142.956 43.9691 143.934 43.4614C144.74 43.0955 145.388 42.4513 145.761 41.646V36.5154C145.383 35.7199 144.735 35.0856 143.933 34.7263C142.953 34.2184 141.865 33.9609 140.763 33.9765L140.765 33.9818ZM164.139 41.279L159.106 29.2985H153.997L161.677 47.3804L157.762 56.5536H162.946L174.435 29.2985H169.171L164.139 41.279Z" fill="black"></path> </svg> 