<?xml version="1.0" encoding="UTF-8"?> <svg xmlns="http://www.w3.org/2000/svg" width="40" height="40" viewBox="0 0 40 40" fill="none"> <g clip-path="url(#clip0)"> <path d="M23.6547 18.7275C23.3083 18.3815 22.7469 18.3815 22.4008 18.7276L20.7362 20.3921C20.5068 20.307 20.2589 20.2603 20.0001 20.2603C19.7412 20.2603 19.4931 20.3071 19.2635 20.3924L15.8422 16.9709C15.496 16.6249 14.9347 16.6249 14.5886 16.9709C14.2424 17.3171 14.2423 17.8784 14.5886 18.2247L18.0102 21.6464C17.9251 21.8757 17.8785 22.1236 17.8785 22.3822C17.8785 23.5521 18.8303 24.504 20.0003 24.504C21.1703 24.504 22.1221 23.5522 22.1221 22.3822C22.1221 22.1234 22.0754 21.8754 21.9902 21.6458L23.6547 19.9812C24.0008 19.6351 24.0008 19.0738 23.6547 18.7275ZM20.0001 22.9082C19.71 22.9082 19.474 22.6721 19.474 22.382C19.474 22.092 19.7101 21.8559 20.0001 21.8559C20.2903 21.8559 20.5263 22.092 20.5263 22.382C20.5262 22.6722 20.2902 22.9082 20.0001 22.9082Z" fill="#343B3B"></path> <path d="M30.4654 8.94209L31.4698 7.50772L35.4964 10.3272C35.6464 10.4324 35.8242 10.4876 36.0049 10.4876C36.0561 10.4876 36.1076 10.4832 36.1588 10.4742C36.3903 10.4334 36.5961 10.3023 36.7309 10.1097C38.7632 7.20725 38.0553 3.1925 35.153 1.16009C32.2506 -0.872485 28.2357 -0.164362 26.2036 2.73805C25.9227 3.13906 26.0203 3.69179 26.4212 3.97257L30.0176 6.49085L29.013 7.92561C26.3968 6.28858 23.3073 5.34062 20.0001 5.34062C16.6929 5.34062 13.6035 6.28858 10.9871 7.92561L9.98246 6.49085L13.5788 3.97257C13.9799 3.69172 14.0774 3.13906 13.7966 2.73805C11.7643 -0.16444 7.74957 -0.872328 4.84709 1.16001C1.94468 3.19227 1.23671 7.20701 3.26897 10.1095C3.40381 10.3022 3.60967 10.4333 3.84115 10.474C3.89232 10.4832 3.94381 10.4875 3.99506 10.4875C4.17568 10.4875 4.35357 10.4322 4.50349 10.3271L8.53012 7.50756L9.53449 8.94193C5.53513 12.0634 2.95858 16.9272 2.95858 22.382C2.95858 28.314 6.00575 33.5468 10.6164 36.5999L9.21246 38.6049C8.9316 39.0059 9.02918 39.5587 9.43012 39.8395C9.58488 39.9479 9.76215 39.9999 9.93777 39.9999C10.2171 39.9999 10.4922 39.8681 10.6646 39.6218L12.1479 37.5035C14.4992 38.7293 17.1699 39.4237 19.9999 39.4237C22.8297 39.4237 25.5001 38.7295 27.8511 37.5039L29.3341 39.6219C29.5065 39.8681 29.7816 40.0001 30.061 40.0001C30.2365 40.0001 30.4139 39.9481 30.5686 39.8396C30.9696 39.5588 31.0671 39.0061 30.7863 38.6051L29.3828 36.6007C33.9938 33.5476 37.0413 28.3145 37.0413 22.3823C37.0415 16.9272 34.465 12.0634 30.4654 8.94209ZM28.2336 3.07742C29.803 1.55985 32.2828 1.31462 34.1362 2.61219C35.9896 3.91008 36.6072 6.32421 35.7179 8.31787L28.2336 3.07742ZM4.28232 8.31795C3.39295 6.32428 4.01053 3.91007 5.86404 2.61227C6.67458 2.04477 7.60465 1.77235 8.52629 1.77235C9.71199 1.77235 10.8835 2.22352 11.7665 3.0775L4.28232 8.31795ZM20.0001 37.6506C11.5809 37.6506 4.73146 30.8012 4.73146 22.382C4.73146 13.9628 11.5809 7.1135 20.0001 7.1135C28.4193 7.1135 35.2687 13.9629 35.2687 22.382C35.2687 30.8011 28.4192 37.6506 20.0001 37.6506Z" fill="#343B3B"></path> <path d="M20.0001 9.84912C13.0895 9.84912 7.46729 15.4714 7.46729 22.382C7.46729 29.2926 13.0895 34.9148 20.0001 34.9148C26.9107 34.9148 32.5329 29.2926 32.5329 22.382C32.5329 15.4714 26.9107 9.84912 20.0001 9.84912ZM28.3313 29.4595L27.7324 28.8606C27.3862 28.5145 26.8249 28.5145 26.4788 28.8606C26.1326 29.2068 26.1326 29.7681 26.4788 30.1142L27.0777 30.7132C25.3799 32.1576 23.2371 33.0936 20.8866 33.2831V32.4306C20.8866 31.9411 20.4897 31.5441 20.0001 31.5441C19.5105 31.5441 19.1136 31.9411 19.1136 32.4306V33.2831C16.763 33.0936 14.6203 32.1576 12.9225 30.7132L13.5215 30.1142C13.8676 29.768 13.8676 29.2067 13.5215 28.8606C13.1753 28.5145 12.614 28.5145 12.2677 28.8606L11.6688 29.4596C10.2243 27.7619 9.28829 25.6191 9.09884 23.2684H9.95134C10.4409 23.2684 10.8378 22.8716 10.8378 22.382C10.8378 21.8924 10.4409 21.4955 9.95134 21.4955H9.09884C9.28829 19.1449 10.2243 17.0021 11.6688 15.3043L12.2677 15.9033C12.4409 16.0764 12.6677 16.1629 12.8945 16.1629C13.1213 16.1629 13.3483 16.0763 13.5213 15.9033C13.8675 15.5571 13.8675 14.9958 13.5213 14.6496L12.9223 14.0506C14.6201 12.6061 16.7629 11.6701 19.1135 11.4807V12.3333C19.1135 12.8228 19.5104 13.2197 20 13.2197C20.4896 13.2197 20.8864 12.8228 20.8864 12.3333V11.4807C23.2371 11.6701 25.3798 12.6061 27.0775 14.0506L26.4786 14.6496C26.1324 14.9957 26.1324 15.5571 26.4786 15.9033C26.6517 16.0764 26.8786 16.1629 27.1054 16.1629C27.3322 16.1629 27.5592 16.0763 27.7322 15.9033L28.3312 15.3044C29.7756 17.0021 30.7116 19.1449 30.901 21.4955H30.0485C29.5589 21.4955 29.162 21.8924 29.162 22.382C29.162 22.8716 29.5591 23.2684 30.0486 23.2684H30.9011C30.7118 25.6191 29.7758 27.7618 28.3313 29.4595Z" fill="#343B3B"></path> </g> <defs> <clipPath id="clip0"> <rect width="40" height="40" fill="white"></rect> </clipPath> </defs> </svg> 