<?xml version="1.0" encoding="UTF-8"?> <svg xmlns="http://www.w3.org/2000/svg" width="176" height="72" viewBox="0 0 176 72" fill="none"> <path fill-rule="evenodd" clip-rule="evenodd" d="M125.284 34.4076L131.748 19.1328H140.411L126.017 53.8H117.088L121.419 43.5725L108.958 19.1328H117.887L125.284 34.4076ZM95.6968 34.8725L108.558 53.8H99.6951L88.2332 37.0641V53.8H79.9701V19H88.2332V34.142L98.229 19.1328H107.159L95.6968 34.8725ZM157.627 45.9547C158.426 45.2568 158.939 44.2909 159.07 43.2404L167 43.3069C166.752 46.197 165.435 48.8921 163.304 50.8682C161.174 52.8443 158.382 53.9603 155.472 53.9992H151.806C148.689 54.0348 145.685 52.8392 143.45 50.6739C141.215 48.5086 139.931 45.5496 139.878 42.4435L139.678 31.0206C139.66 27.9194 140.865 24.9352 143.034 22.7115C145.203 20.4877 148.162 19.2025 151.273 19.1328H155.005C157.889 19.0944 160.686 20.1161 162.861 22.0027C165.037 23.8893 166.439 26.5086 166.8 29.3603H158.87C158.657 28.3524 158.105 27.4473 157.305 26.795C156.505 26.1427 155.505 25.7825 154.472 25.774H151.806C150.623 25.7924 149.494 26.2783 148.67 27.1251C147.845 27.9718 147.391 29.1102 147.408 30.2901L147.608 42.6427C147.626 43.8112 148.104 44.9259 148.939 45.7461C149.775 46.5662 150.9 47.0259 152.073 47.0259H154.738C155.801 47.0338 156.829 46.6526 157.627 45.9547ZM75.9718 30.6221C75.9457 29.0871 75.6165 27.5722 75.0029 26.164C74.3894 24.7558 73.5034 23.4819 72.3957 22.4149C71.288 21.348 69.9803 20.509 68.5472 19.9459C67.1141 19.3827 65.5837 19.1064 64.0435 19.1328H60.3117C57.2007 19.2025 54.2417 20.4877 52.0726 22.7115C49.9036 24.9352 48.6983 27.9194 48.7166 31.0206L48.9165 42.4435C48.9691 45.5496 50.2533 48.5086 52.4885 50.6739C54.7236 52.8393 57.7279 54.0348 60.8448 53.9992H64.5099C67.6266 53.9468 70.5957 52.6669 72.7684 50.4394C74.9411 48.2119 76.1407 45.2178 76.105 42.1114L75.9718 30.6221ZM63.7769 47.0259H61.1114C59.9387 47.0261 58.813 46.5664 57.9776 45.7463C57.1422 44.9261 56.6641 43.8113 56.6466 42.6427L56.4467 30.2901C56.429 29.11 56.8825 27.9712 57.7073 27.1243C58.5321 26.2774 59.6607 25.7917 60.8448 25.774H63.5104C64.6894 25.7735 65.8223 26.2311 66.6683 27.0495C67.5144 27.8679 68.0071 28.9827 68.0418 30.1573L68.1751 42.5099C68.1929 43.0966 68.0923 43.6809 67.8793 44.2281C67.6663 44.7753 67.3451 45.2743 66.935 45.6955C66.5248 46.1167 66.0339 46.4515 65.4914 46.6801C64.9489 46.9086 64.3659 47.0262 63.7769 47.0259ZM22.9941 19.1328H31.2573V21.6565H36.0552C38.5949 21.6739 41.0255 22.687 42.8213 24.4768C44.6171 26.2665 45.6337 28.6889 45.6512 31.2198V39.2557C45.6336 41.7806 44.6148 44.196 42.8172 45.9751C41.0195 47.7543 38.5887 48.7527 36.0552 48.7527H31.2573V53.9594H22.9941V48.7527H18.596C16.0625 48.7527 13.6317 47.7543 11.834 45.9751C10.0364 44.196 9.01759 41.7806 9 39.2557V31.2198C9.01746 28.6889 10.0341 26.2665 11.8299 24.4768C13.6257 22.687 16.0563 21.6739 18.596 21.6565H22.9941V19.1328ZM22.9941 27.7H21.1282C20.5188 27.6912 19.9137 27.8032 19.3481 28.0296C18.7826 28.2559 18.2678 28.5921 17.8337 29.0185C17.3997 29.4449 17.055 29.953 16.8198 30.5133C16.5846 31.0737 16.4635 31.675 16.4635 32.2824V38.1931C16.4635 38.8005 16.5846 39.4019 16.8198 39.9622C17.055 40.5226 17.3997 41.0307 17.8337 41.4571C18.2678 41.8835 18.7826 42.2197 19.3481 42.446C19.9137 42.6723 20.5188 42.7844 21.1282 42.7756H22.9941V27.7ZM31.2573 42.7756H33.1232C33.7326 42.7844 34.3376 42.6723 34.9032 42.446C35.4688 42.2197 35.9836 41.8835 36.4176 41.4571C36.8517 41.0307 37.1964 40.5226 37.4316 39.9622C37.6668 39.4019 37.7879 38.8005 37.7879 38.1931V32.2824C37.7879 31.675 37.6668 31.0737 37.4316 30.5133C37.1964 29.953 36.8517 29.4449 36.4176 29.0185C35.9836 28.5921 35.4688 28.2559 34.9032 28.0296C34.3376 27.8032 33.7326 27.6912 33.1232 27.7H31.2573V42.7756Z" fill="#ED3237"></path> </svg> 