<?xml version="1.0" encoding="UTF-8"?> <svg xmlns="http://www.w3.org/2000/svg" width="40" height="40" viewBox="0 0 40 40" fill="none"> <g clip-path="url(#clip0)"> <path d="M33.6309 0H10.4402C7.70516 0 5.48016 2.22516 5.48016 4.96017V35.0399C5.48016 37.775 7.70524 40.0001 10.4403 40.0001H33.6309C34.1219 40.0001 34.5199 39.6021 34.5199 39.1111C34.5199 39.0923 34.5182 39.0738 34.5171 39.0552C34.5183 39.0366 34.5199 39.0183 34.5199 38.9994V9.03135V0.888986C34.5199 0.39797 34.1217 0 33.6309 0ZM9.55126 38.0949C8.22798 37.7091 7.25813 36.4861 7.25813 35.04V8.76127C7.90391 9.30275 8.68915 9.68229 9.55126 9.839V38.0949ZM10.4402 8.14228C8.68555 8.14228 7.25805 6.7147 7.25805 4.96017C7.25805 3.20563 8.68563 1.77805 10.4402 1.77805H29.8299C29.1071 2.64001 28.6708 3.74993 28.6708 4.96017C28.6708 6.1704 29.1071 7.28033 29.8299 8.14228H27.8527H22.8786H10.4402ZM26.9636 9.92033V15.1361L25.902 14.3457C25.5868 14.1109 25.1549 14.111 24.8396 14.346L23.7674 15.1456V9.92033H26.9636ZM32.7419 38.222H11.3291V9.92033H21.9895V16.9175C21.9895 17.2538 22.1792 17.5613 22.4799 17.7121C22.6059 17.7753 22.7424 17.8064 22.8784 17.8064C23.0665 17.8064 23.2534 17.7468 23.41 17.63L25.3716 16.1672L27.3217 17.6194C27.5914 17.8203 27.9513 17.8517 28.2516 17.7008C28.5521 17.55 28.7417 17.2425 28.7417 16.9064V9.92025H32.7419V38.222ZM32.7419 8.01509C31.4186 7.62931 30.4487 6.40626 30.4487 4.96009C30.4487 3.51391 31.4186 2.29102 32.7418 1.90524V8.01509H32.7419Z" fill="#343B3B"></path> <path d="M26.3964 21.2856H17.6747C17.1836 21.2856 16.7857 21.6836 16.7857 22.1746C16.7857 22.6657 17.1838 23.0636 17.6747 23.0636H26.3964C26.8873 23.0636 27.2854 22.6656 27.2854 22.1746C27.2854 21.6836 26.8872 21.2856 26.3964 21.2856Z" fill="#343B3B"></path> <path d="M28.8808 26.8564H15.1903C14.6993 26.8564 14.3013 27.2544 14.3013 27.7454C14.3013 28.2364 14.6993 28.6344 15.1903 28.6344H28.8808C29.3717 28.6344 29.7698 28.2364 29.7698 27.7454C29.7698 27.2544 29.3718 26.8564 28.8808 26.8564Z" fill="#343B3B"></path> </g> <defs> <clipPath id="clip0"> <rect width="40" height="40" fill="white"></rect> </clipPath> </defs> </svg> 