<?xml version="1.0" encoding="UTF-8"?> <svg xmlns="http://www.w3.org/2000/svg" width="176" height="72" viewBox="0 0 176 72" fill="none"> <path d="M35.6426 14.0848C35.6426 11.8807 37.4293 10.094 39.6334 10.094H137.009C139.213 10.094 141 11.8807 141 14.0848V57.9837C141 60.1878 139.213 61.9745 137.009 61.9745H55.5966L37.8818 69.769C36.8268 70.2332 35.6426 69.4605 35.6426 68.3079V14.0848Z" fill="url(#paint0_linear)"></path> <path fill-rule="evenodd" clip-rule="evenodd" d="M98.3802 29.0776H102.091V37.9359C102.091 39.832 103.205 40.748 104.711 40.748C106.258 40.748 107.331 39.832 107.331 37.9359V29.0776H111.044V37.7475C111.044 39.8207 110.446 41.434 109.25 42.5856C108.053 43.7372 106.547 44.2819 104.711 44.2819C102.875 44.2819 101.369 43.7165 100.175 42.5856C98.9796 41.4548 98.3802 39.8132 98.3802 37.7475V29.0776ZM65.9834 29.1794H69.6115V44.0369H65.9834V29.1794ZM76.1836 32.5324V44.0369H79.9587V32.5324H84.3841V29.1794H71.7789V32.5324H76.1836ZM118.655 29.0776L112.405 44.0463H116.44L117.695 40.8988H123.217L124.469 44.0463H128.574L122.328 29.0776H118.655ZM122.006 37.8379H118.905L120.456 33.8611L122.006 37.8379ZM88.2742 36.8805C88.2746 37.4209 88.4352 37.9491 88.7357 38.3983C89.0362 38.8475 89.4632 39.1974 89.9626 39.404C90.462 39.6106 91.0114 39.6644 91.5414 39.5588C92.0714 39.4531 92.5582 39.1927 92.9402 38.8104C93.3222 38.4281 93.5823 37.9412 93.6876 37.4111C93.7929 36.881 93.7387 36.3316 93.5318 35.8323C93.3249 35.3331 92.9746 34.9064 92.5252 34.6062C92.0758 34.306 91.5475 34.1457 91.0071 34.1457C90.6481 34.1457 90.2925 34.2165 89.9608 34.3539C89.6292 34.4914 89.3278 34.6929 89.074 34.9468C88.8202 35.2008 88.6189 35.5023 88.4817 35.8341C88.3445 36.1659 88.274 36.5214 88.2742 36.8805ZM50.568 29.1794V44.0369L58.2144 44.0444C59.7976 44.0444 61.1018 43.6618 62.0593 42.8778C62.5306 42.5114 62.9088 42.039 63.1633 41.499C63.4177 40.959 63.5412 40.3665 63.5237 39.7698C63.5237 38.688 63.2184 37.8172 62.653 37.1161C62.1643 36.4784 61.4763 36.0226 60.6985 35.8213C61.2348 35.5578 61.6841 35.1457 61.9928 34.6341C62.3016 34.1226 62.4568 33.533 62.44 32.9357C62.44 30.4988 60.5289 29.1794 57.8111 29.1794H50.568ZM57.2306 34.8676H54.3846V32.2742H57.2306C58.1635 32.2742 58.7591 32.7661 58.7591 33.5935C58.7591 34.3794 58.1729 34.8676 57.2306 34.8676ZM57.4643 40.8536H54.3846V37.6909H57.4643C58.5895 37.6909 59.3321 38.2752 59.3321 39.2817C59.3321 40.2881 58.6309 40.8536 57.4643 40.8536Z" fill="white"></path> <defs> <linearGradient id="paint0_linear" x1="35.6426" y1="36.0343" x2="141" y2="36.4333" gradientUnits="userSpaceOnUse"> <stop stop-color="#FF372B"></stop> <stop offset="0.6875" stop-color="#743061"></stop> <stop offset="1" stop-color="#003E55"></stop> </linearGradient> </defs> </svg> 