<?xml version="1.0" encoding="UTF-8"?> <svg xmlns="http://www.w3.org/2000/svg" width="176" height="72" viewBox="0 0 176 72" fill="none"> <path d="M84.7773 19.4058L88.4687 49.2961H88.5586L104.967 19.4058H111.742L104.247 54.7656H99.61L104.044 33.8783C104.247 32.8654 105.349 28.3189 106.092 25.0552H106.047L89.7291 54.7656H85.0025L81.4012 25.0552H81.2661C80.5459 28.2738 79.7131 32.8429 79.5105 33.8783L75.0765 54.7656H70.4399L77.935 19.4058H84.7773Z" fill="#3FC7F2"></path> <path d="M79.3978 37.1193C79.0602 36.2415 77.8672 33.2705 76.9669 29.4667H76.7644C76.6969 36.1291 76.6969 37.9297 76.6293 39.3927L75.9992 53.7527C75.9992 54.3829 75.8641 54.7655 74.8962 54.7655H69.1567C68.459 54.7655 67.9863 54.5629 68.0539 53.7527L69.9896 22.4443C70.057 21.6115 70.3272 21.4315 71.0924 21.4315H78.43C79.0602 21.4315 79.2627 21.4315 79.6003 22.2192L85.2049 34.486C85.9701 36.2415 87.073 39.3027 87.2756 40.338H87.4106C87.8157 38.0423 88.581 36.6918 89.6163 34.486L95.4909 22.2192C95.6934 21.7916 95.8285 21.4315 96.7288 21.4315H103.796C104.764 21.4315 105.169 21.5215 105.259 22.9845L107.195 53.7527C107.262 54.6305 106.7 54.7655 106.16 54.7655H99.2497C98.4169 54.7655 98.2143 54.4278 98.2143 53.7527L97.6517 37.2544C97.5841 36.1741 97.5841 35.8365 97.5841 34.486C97.5841 34.1034 97.5841 33.7657 97.5841 33.3606C97.5841 32.0551 97.5841 30.7722 97.5841 29.4667H97.3815C96.6163 32.4377 96.0085 34.7786 94.9507 37.1193L90.7193 46.6177C90.5166 47.0454 90.5166 47.4505 89.5488 47.4505H84.6422C83.5392 47.4505 83.6068 47.0679 83.4041 46.6177L79.3978 37.1193Z" fill="#FFEB00"></path> <path d="M92.61 54.9455L97.4042 33.2705L85.34 54.9455H82.7516L80.2982 33.2705L75.504 54.9455H68.9542L76.1343 22.3768H84.7322L86.8255 41.2383L97.3817 22.3768H106.317L99.1373 54.9455H92.61Z" fill="#DF0F5A"></path> <path d="M154.259 19.2707C153.246 15.1968 147.214 11.2354 142.375 13.1036C139.719 14.1164 137.761 16.1196 135.847 17.9203C134.407 19.2707 132.764 20.5537 131.121 21.634C130.266 22.1967 129.343 22.7819 128.307 22.8495C127.25 22.917 127.092 22.2417 127.159 21.364C127.182 20.9813 127.159 20.6212 127.115 20.2386C127.047 19.5408 126.912 18.8431 126.664 18.1678C126.237 17.0199 125.539 16.0071 125.089 14.8817C124.729 14.0039 124.706 13.0811 124.324 12.2258C123.896 11.2354 122.68 10.4477 121.555 10.2001C120.745 10.02 119.889 9.92998 119.057 10.065C117.864 10.2451 116.243 10.9203 115.906 12.2033C115.793 12.6084 115.748 13.1261 115.793 13.5537C115.861 14.229 115.996 14.9267 116.288 15.5569C116.851 16.7273 117.751 17.6952 118.269 18.8881C118.652 19.7434 118.787 20.7112 118.787 21.634C118.787 26.4057 115.906 26.4057 115.906 31.1773C115.906 35.949 118.787 35.949 118.787 40.7206C118.787 45.4923 115.906 45.4923 115.906 50.264C115.906 55.0356 117.931 54.9681 118.787 59.6947C118.877 60.2574 118.201 60.7526 119.034 60.7526C119.867 60.7526 119.867 58.8394 120.722 58.8394C121.555 58.8394 121.555 60.7526 122.41 60.7526C123.243 60.7526 123.243 58.8394 124.098 58.8394C124.931 58.8394 127.115 60.4601 127.204 59.8973C128.037 55.1482 125.111 55.1932 124.346 50.3315C123.603 45.5824 127.227 45.4473 127.227 40.6756C127.227 35.904 124.008 35.9265 124.008 31.1548C124.008 30.5247 123.963 29.4893 124.459 28.9716C125.066 28.3414 126.687 28.454 127.452 28.4313C130.738 28.3189 133.507 27.306 136.095 25.3028C136.838 24.7401 137.558 24.1325 138.278 23.5247C139.651 22.3768 147.214 16.7273 147.687 21.634C147.912 24.0874 145.211 26.8783 143.478 28.5889C139.111 32.9329 130.851 35.4988 129.343 41.5985C128.735 44.0294 129.298 47.0903 131.503 48.891C133.057 50.1739 134.947 49.7913 136.635 50.6466C138.638 51.6595 138.773 54.698 139.156 56.3861C139.336 57.1964 139.854 61.6529 141.474 60.9326C142.307 60.5725 142.6 58.5919 142.78 57.9167C143.59 54.8106 145.278 48.5534 140.034 47.7206C138.593 47.4956 135.78 47.428 134.677 46.5277C130.063 42.7239 139.674 37.7046 142.442 35.8589C145.526 33.8108 148.857 31.7626 151.04 28.949C153.133 26.2257 155.114 22.7144 154.259 19.2707Z" fill="#FB0031"></path> <path d="M123.896 14.184C123.896 14.319 123.963 14.4541 123.986 14.5891C124.031 14.7241 124.076 14.8367 124.143 14.9717C124.256 15.2193 124.346 15.4894 124.436 15.7595C124.481 15.8946 124.526 16.0296 124.548 16.1647C124.571 16.2322 124.571 16.2997 124.571 16.3897C124.571 16.4573 124.571 16.5473 124.526 16.6373C124.481 16.7273 124.346 16.7724 124.256 16.7724C124.166 16.7724 124.098 16.7499 124.008 16.7273C123.873 16.6823 123.738 16.6148 123.603 16.5473L123.783 16.4798L123.761 16.6373C123.761 16.6823 123.761 16.7499 123.761 16.7949C123.761 16.9074 123.783 17.0199 123.783 17.11C123.828 17.3351 123.873 17.5376 123.941 17.7627C123.963 17.8753 123.986 17.9878 124.008 18.1003C124.031 18.2129 124.031 18.3479 124.031 18.4604L124.008 18.6405C123.986 18.708 123.986 18.753 123.963 18.8206C123.941 18.8881 123.918 18.9331 123.896 19.0006C123.873 19.0456 123.828 19.1132 123.806 19.1582C123.738 19.2482 123.671 19.3608 123.581 19.4508C123.536 19.4958 123.468 19.5408 123.378 19.5408C123.288 19.5633 123.198 19.4958 123.153 19.4508C123.063 19.3383 123.018 19.2257 122.973 19.1132C122.928 19.0006 122.905 18.8881 122.883 18.7756C122.838 18.5505 122.793 18.3254 122.77 18.1003C122.748 17.8753 122.725 17.6502 122.68 17.4251C122.748 17.6502 122.793 17.8753 122.838 18.1003C122.883 18.3254 122.95 18.5505 122.995 18.753C123.018 18.8656 123.063 18.9781 123.108 19.0682C123.153 19.1582 123.198 19.2707 123.266 19.3157C123.288 19.3383 123.333 19.3608 123.356 19.3383C123.378 19.3383 123.423 19.3157 123.446 19.2707C123.513 19.2032 123.558 19.1132 123.626 19.0231C123.648 18.9781 123.671 18.9331 123.693 18.8881C123.716 18.8431 123.716 18.7981 123.738 18.7305C123.738 18.6855 123.761 18.618 123.761 18.573V18.4154C123.761 18.3029 123.738 18.2129 123.738 18.1003C123.716 17.9878 123.693 17.8753 123.671 17.7852C123.626 17.5601 123.558 17.3351 123.513 17.11C123.491 16.9974 123.491 16.8849 123.491 16.7499C123.491 16.6823 123.491 16.6373 123.491 16.5698C123.491 16.5023 123.513 16.4573 123.513 16.3897C123.513 16.3222 123.581 16.2997 123.648 16.2997C123.671 16.2997 123.671 16.2997 123.693 16.3222C123.806 16.3897 123.918 16.4573 124.031 16.5023C124.098 16.5248 124.143 16.5473 124.188 16.5473C124.233 16.5473 124.256 16.5473 124.278 16.5023C124.301 16.4798 124.323 16.4122 124.323 16.3672C124.323 16.2997 124.323 16.2322 124.301 16.1872C124.278 16.0521 124.256 15.9171 124.211 15.782C124.143 15.5119 124.053 15.2643 123.963 14.9942C123.918 14.8592 123.896 14.7241 123.851 14.5891C123.918 14.4541 123.896 14.319 123.896 14.184Z" fill="black"></path> <path d="M120.52 19.4058L120.565 19.9685C120.587 20.1485 120.632 20.3286 120.655 20.5086C120.745 20.8688 120.835 21.2289 120.948 21.589C121.06 21.9491 121.195 22.3093 121.308 22.6469C121.375 22.8269 121.443 23.007 121.488 23.1871C121.533 23.3671 121.6 23.5472 121.645 23.7272C121.735 24.1098 121.78 24.47 121.825 24.8527C121.848 25.2353 121.87 25.6179 121.848 26.0005C121.803 26.3831 121.758 26.7659 121.555 27.126C121.465 27.306 121.308 27.4636 121.105 27.5536C120.903 27.6436 120.677 27.6436 120.497 27.6212C120.452 27.6212 120.407 27.576 120.407 27.5086C120.407 27.3285 120.43 27.1485 120.43 26.9909C120.43 26.9008 120.43 26.8108 120.452 26.7434V26.6083C120.452 26.5633 120.452 26.5182 120.452 26.4732C120.452 26.3831 120.452 26.3156 120.43 26.2257C120.407 26.1356 120.407 26.0456 120.385 25.978C120.385 25.933 120.362 25.9105 120.362 25.933C120.362 25.933 120.295 25.933 120.25 25.933C120.16 25.933 120.07 25.9105 119.98 25.8881H120.002C120.025 25.8881 120.002 25.8881 120.002 25.9105L119.957 25.9555C119.935 26.0005 119.867 26.0456 119.8 26.0456C119.732 26.0456 119.687 26.023 119.642 25.978L119.62 25.9555C119.597 25.933 119.597 25.933 119.597 25.933C119.575 25.9105 119.575 25.9105 119.552 25.8654C119.552 25.8429 119.53 25.798 119.53 25.7755V25.708C119.53 25.6629 119.53 25.6179 119.53 25.5729L119.552 25.4378C119.552 25.3929 119.552 25.3478 119.552 25.3253L119.507 24.8076C119.507 24.7176 119.507 24.6275 119.507 24.5376C119.507 24.4475 119.53 24.3575 119.53 24.2674C119.53 24.3575 119.53 24.4475 119.53 24.5376C119.53 24.6275 119.552 24.7176 119.552 24.8076L119.642 25.3253C119.642 25.3704 119.665 25.4154 119.665 25.4603V25.5954C119.665 25.6404 119.665 25.6854 119.665 25.7305V25.798C119.665 25.8205 119.687 25.8205 119.687 25.8429C119.687 25.8654 119.71 25.8654 119.732 25.8881L119.755 25.9105L119.777 25.933C119.8 25.9555 119.845 25.978 119.867 25.978C119.89 25.978 119.912 25.9555 119.935 25.933L119.98 25.8881C120.002 25.8654 120.002 25.8429 120.092 25.8205C120.182 25.8429 120.25 25.8429 120.34 25.8429C120.385 25.8429 120.407 25.8205 120.497 25.8429C120.587 25.8881 120.61 25.9555 120.61 26.0005C120.632 26.0906 120.655 26.1806 120.677 26.2707C120.7 26.3606 120.7 26.4507 120.723 26.5407C120.723 26.5858 120.745 26.6308 120.745 26.6758V26.8108C120.745 26.9008 120.745 26.9909 120.745 27.081C120.745 27.261 120.723 27.4185 120.723 27.5987L120.632 27.4861C120.812 27.5086 120.97 27.5086 121.105 27.4411C121.24 27.3735 121.353 27.2384 121.443 27.081C121.6 26.7659 121.668 26.4057 121.69 26.0456C121.713 25.6854 121.713 25.3028 121.69 24.9427C121.668 24.5825 121.623 24.1999 121.533 23.8398C121.488 23.6598 121.42 23.4797 121.375 23.2997L121.218 22.7594C121.105 22.3993 120.993 22.0392 120.903 21.679C120.857 21.499 120.812 21.3189 120.767 21.1389C120.723 20.9588 120.7 20.7562 120.655 20.5762C120.632 20.3961 120.61 20.1935 120.587 20.0135C120.52 19.7884 120.52 19.5858 120.52 19.4058Z" fill="black"></path> <path d="M125.494 19.8784C125.494 19.8784 125.516 20.4186 125.629 21.2289C125.674 21.634 125.719 22.1067 125.809 22.6244C125.877 23.1196 125.967 23.6598 126.079 24.1999C126.147 24.47 126.192 24.7176 126.282 24.9651C126.327 25.1002 126.372 25.2128 126.417 25.3253C126.462 25.4378 126.552 25.5279 126.597 25.5504C126.619 25.5504 126.597 25.5504 126.642 25.5504C126.664 25.5504 126.709 25.5504 126.732 25.5279C126.799 25.5279 126.844 25.5053 126.889 25.4828C127.002 25.4603 127.069 25.3929 127.114 25.3253C127.16 25.2578 127.137 25.1677 127.114 25.0777C127.092 24.9876 127.047 24.8977 127.002 24.8076C126.912 24.6275 126.822 24.47 126.754 24.3125C126.687 24.155 126.619 24.0199 126.597 23.9073C126.574 23.7948 126.552 23.6823 126.574 23.6147C126.597 23.5472 126.597 23.5247 126.597 23.5247C126.597 23.5247 126.574 23.5472 126.597 23.6147C126.597 23.6823 126.619 23.7722 126.664 23.8848C126.754 24.1098 126.957 24.3575 127.182 24.7176C127.227 24.8076 127.294 24.8977 127.34 25.0327C127.385 25.1452 127.407 25.3028 127.34 25.4378C127.272 25.5954 127.114 25.6629 127.002 25.708C126.934 25.7305 126.867 25.753 126.799 25.753C126.754 25.753 126.732 25.7755 126.709 25.7755C126.687 25.7755 126.597 25.7755 126.552 25.7755C126.349 25.708 126.304 25.5504 126.237 25.4378C126.169 25.3028 126.124 25.1903 126.079 25.0552C125.989 24.7851 125.921 24.5151 125.877 24.2449C125.764 23.7047 125.696 23.1646 125.651 22.6469C125.606 22.1292 125.561 21.6565 125.539 21.2514C125.516 20.8463 125.516 20.5086 125.516 20.261C125.471 20.036 125.494 19.8784 125.494 19.8784Z" fill="black"></path> <path d="M125.584 27.6211C125.584 27.6211 125.539 27.6211 125.426 27.6211C125.381 27.6211 125.314 27.6211 125.246 27.6211C125.201 27.6211 125.179 27.6211 125.134 27.6436C125.089 27.6436 125.044 27.6661 124.999 27.6661C124.819 27.7111 124.593 27.7787 124.391 27.9137C124.166 28.0487 123.941 28.2513 123.738 28.4764C123.536 28.724 123.356 29.0166 123.22 29.3542C123.198 29.4442 123.153 29.5343 123.13 29.6243C123.13 29.6692 123.108 29.7144 123.108 29.7593L123.085 29.8944C123.063 29.9844 123.063 30.097 123.04 30.1869C123.04 30.277 123.04 30.3896 123.018 30.4796C122.995 30.8622 123.04 31.2899 123.085 31.7175C123.13 32.1452 123.22 32.5728 123.288 33.0005C123.31 33.2255 123.356 33.4281 123.378 33.6533C123.401 33.8558 123.446 34.0808 123.446 34.3059C123.446 34.5311 123.446 34.7786 123.265 34.9811C123.176 35.0712 123.04 35.1387 122.905 35.1387C122.815 35.1612 122.635 35.1387 122.545 35.0487C122.32 34.8912 122.275 34.666 122.23 34.4634C122.185 34.2609 122.185 34.0808 122.163 33.8783C122.14 33.4957 122.185 33.1581 122.095 32.8429C122.005 32.5503 121.825 32.3028 121.712 32.0551C121.6 31.8076 121.6 31.5599 121.6 31.3799C121.6 31.1998 121.622 31.0422 121.622 30.9298C121.622 30.8172 121.622 30.7722 121.622 30.7722C121.622 30.7722 121.622 30.9972 121.645 31.3574C121.645 31.5374 121.667 31.7851 121.78 32.0101C121.892 32.2352 122.118 32.4603 122.23 32.7979C122.343 33.1356 122.32 33.4957 122.365 33.8558C122.388 34.0359 122.41 34.2159 122.455 34.4185C122.5 34.5985 122.568 34.7786 122.703 34.8687C122.77 34.9137 122.815 34.9137 122.928 34.9137C122.995 34.8912 123.085 34.8687 123.13 34.8236C123.22 34.7111 123.243 34.5084 123.243 34.3059C123.243 34.1033 123.198 33.9008 123.176 33.6757C123.153 33.4506 123.108 33.248 123.085 33.0455C123.018 32.6179 122.95 32.1902 122.883 31.7626C122.838 31.3349 122.793 30.9073 122.838 30.5021C122.838 30.3896 122.86 30.2995 122.86 30.1869C122.883 30.097 122.905 29.9844 122.905 29.8944L122.928 29.7593C122.928 29.6919 122.95 29.6692 122.973 29.6018C122.995 29.5118 123.04 29.4217 123.063 29.3317C123.22 28.9715 123.423 28.679 123.648 28.4313C123.873 28.1838 124.121 28.0037 124.368 27.8687C124.593 27.7336 124.841 27.6661 125.021 27.6436C125.066 27.6436 125.111 27.6211 125.156 27.6211C125.201 27.6211 125.246 27.6211 125.269 27.6211C125.336 27.6211 125.404 27.6211 125.449 27.6211C125.539 27.5987 125.584 27.6211 125.584 27.6211Z" fill="black"></path> <path d="M118.336 32.843L118.224 33.2481C118.201 33.3831 118.179 33.5407 118.156 33.6758C118.134 33.8108 118.156 33.9684 118.134 34.1034C118.134 34.2384 118.156 34.396 118.156 34.5311V34.5761V34.5985V34.621L118.179 34.7336C118.201 34.8011 118.201 34.8687 118.224 34.9362C118.246 35.0038 118.269 35.0712 118.291 35.1387C118.314 35.2063 118.336 35.2738 118.381 35.3188C118.449 35.4314 118.539 35.5664 118.606 35.679C118.696 35.7915 118.764 35.9266 118.854 36.0391C118.899 36.1066 118.944 36.1741 118.967 36.2417C118.989 36.3092 119.034 36.3768 119.057 36.4442C119.102 36.5793 119.147 36.7369 119.192 36.8718C119.259 37.1645 119.327 37.4346 119.394 37.7046C119.439 37.8397 119.484 37.9748 119.529 38.0872C119.552 38.1548 119.574 38.2223 119.619 38.2673C119.642 38.3349 119.687 38.3799 119.732 38.4249C119.799 38.5374 119.912 38.5824 120.024 38.65C120.092 38.6725 120.137 38.6725 120.205 38.695H120.385L120.294 38.8076C120.294 38.65 120.294 38.4925 120.294 38.3349C120.294 38.2674 120.272 38.1773 120.272 38.1099C120.249 38.0423 120.227 37.9748 120.205 37.8847C120.205 37.8622 120.182 37.8172 120.159 37.7722C120.137 37.7271 120.137 37.7046 120.114 37.6821C120.069 37.6147 120.024 37.5471 120.002 37.4796C119.979 37.4346 119.957 37.3895 119.957 37.3445C119.957 37.2995 119.934 37.2546 119.934 37.2094C119.934 37.1645 119.912 37.1195 119.934 37.0745L119.957 36.9394C119.957 36.8944 120.002 36.8493 120.069 36.8493H120.092C120.159 36.8718 120.227 36.8944 120.294 36.8944C120.362 36.9169 120.407 36.9394 120.475 36.9844C120.52 37.0069 120.587 37.0294 120.632 37.0519L120.79 37.097L120.7 37.1645L120.722 37.0069L120.7 36.8493C120.677 36.8043 120.655 36.7369 120.632 36.6918C120.61 36.6468 120.587 36.6018 120.542 36.5342C120.475 36.4442 120.407 36.3541 120.339 36.2417C120.294 36.1967 120.272 36.1516 120.227 36.1066C120.182 36.0616 120.159 36.0165 120.114 35.949C120.069 35.8365 120.002 35.7465 119.957 35.6339L119.912 35.4539C119.889 35.3864 119.867 35.3414 119.867 35.2738L119.844 35.0937C119.844 35.0263 119.822 34.9812 119.822 34.9137V34.5536L119.844 34.9137C119.844 34.9812 119.867 35.0263 119.867 35.0937L119.889 35.2738C119.912 35.3414 119.934 35.3864 119.957 35.4314L120.024 35.5889C120.092 35.7015 120.137 35.7915 120.205 35.9041C120.227 35.949 120.272 35.994 120.317 36.0391C120.362 36.0841 120.385 36.1291 120.43 36.1741C120.497 36.2642 120.587 36.3541 120.655 36.4667C120.7 36.5117 120.722 36.5793 120.767 36.6243C120.79 36.6693 120.812 36.7369 120.835 36.8043C120.857 36.8718 120.857 36.9394 120.88 37.0069V37.2094C120.88 37.2546 120.835 37.277 120.79 37.277C120.79 37.277 120.79 37.277 120.767 37.277L120.565 37.2321C120.497 37.2094 120.452 37.187 120.385 37.1645C120.317 37.142 120.272 37.1195 120.205 37.097C120.159 37.0745 120.092 37.0745 120.047 37.0519L120.159 36.9619V37.0745C120.159 37.1195 120.159 37.142 120.159 37.187C120.159 37.2321 120.182 37.2546 120.182 37.277C120.182 37.2995 120.205 37.3445 120.227 37.367C120.272 37.4346 120.317 37.5021 120.339 37.5696C120.362 37.6147 120.385 37.6597 120.407 37.6821C120.43 37.7271 120.43 37.7497 120.452 37.7947C120.475 37.8847 120.497 37.9523 120.52 38.0423C120.542 38.1323 120.52 38.1998 120.542 38.2899C120.565 38.4475 120.542 38.6275 120.542 38.785C120.542 38.8301 120.52 38.8751 120.475 38.8976L120.249 38.9201C120.159 38.8976 120.092 38.8976 120.002 38.8751C119.844 38.8076 119.709 38.7175 119.619 38.5824C119.574 38.515 119.529 38.4475 119.484 38.3799C119.439 38.3124 119.417 38.2448 119.394 38.1773C119.327 38.0423 119.282 37.9072 119.259 37.7497C119.192 37.4571 119.124 37.187 119.057 36.9169C119.034 36.7819 118.989 36.6468 118.944 36.5117L118.921 36.4217L118.809 36.3316C118.787 36.2642 118.741 36.2192 118.719 36.1516C118.651 36.0165 118.584 35.9041 118.494 35.7915C118.426 35.679 118.336 35.5439 118.269 35.4089C118.224 35.3414 118.201 35.2738 118.179 35.2063C118.156 35.1387 118.134 35.0712 118.111 34.9813C118.089 34.9137 118.066 34.8462 118.066 34.7561L118.044 34.6437V34.621C118.044 34.5985 118.044 34.5985 118.044 34.5985V34.5536C118.044 34.4185 118.044 34.2609 118.044 34.126C118.066 33.9909 118.066 33.8333 118.089 33.6983C118.111 33.5632 118.156 33.4056 118.179 33.2707L118.336 32.843Z" fill="black"></path> <path d="M125.336 40.1804L125.493 40.338C125.516 40.3605 125.538 40.4056 125.561 40.4281L125.628 40.518C125.673 40.5856 125.673 40.6531 125.696 40.7206C125.718 40.7657 125.718 40.7882 125.718 40.8332L125.741 40.9458C125.741 41.0132 125.741 41.1033 125.718 41.1708C125.696 41.2383 125.673 41.3284 125.673 41.3958C125.651 41.4634 125.629 41.5309 125.583 41.5985L125.471 41.8011C125.336 42.1837 125.178 42.5438 125.021 42.9039L124.796 43.4666C124.751 43.5567 124.728 43.6466 124.683 43.7592C124.638 43.8493 124.571 43.9393 124.526 44.0294C124.39 44.2094 124.278 44.367 124.075 44.4794C123.985 44.547 123.85 44.592 123.715 44.5695C123.58 44.5244 123.49 44.412 123.445 44.3219C123.423 44.2769 123.4 44.2094 123.378 44.1643C123.378 44.1418 123.355 44.1193 123.355 44.0743V44.0067V43.9393C123.355 43.9168 123.355 43.8718 123.355 43.8493C123.355 43.7817 123.378 43.7367 123.4 43.6692C123.445 43.5567 123.535 43.4891 123.58 43.3991C123.648 43.3316 123.693 43.2415 123.738 43.1741C123.738 43.1064 123.76 43.0165 123.76 42.9489L123.783 42.7014C123.783 42.5438 123.783 42.3862 123.805 42.2062L123.85 42.6789L123.873 42.9264C123.873 43.0165 123.873 43.084 123.873 43.1741C123.828 43.2865 123.783 43.3766 123.715 43.4666C123.648 43.5567 123.603 43.6241 123.58 43.7142C123.558 43.7592 123.558 43.7817 123.558 43.8267C123.558 43.8493 123.558 43.8718 123.558 43.8943L123.58 43.9618L123.603 44.0294L123.625 44.0743C123.648 44.1193 123.648 44.1643 123.67 44.1868C123.715 44.2769 123.76 44.3219 123.805 44.3219C123.85 44.3219 123.94 44.2994 124.008 44.2544C124.143 44.1643 124.278 44.0067 124.39 43.8493C124.436 43.7592 124.503 43.6917 124.548 43.6016C124.593 43.5342 124.616 43.4216 124.661 43.3316L124.886 42.7913C125.043 42.4312 125.223 42.0486 125.381 41.6885L125.493 41.5084L125.583 41.3284C125.606 41.2609 125.628 41.1933 125.651 41.1258L125.696 41.0132C125.696 40.9683 125.741 40.9458 125.741 40.9008V40.7882C125.741 40.7432 125.718 40.7206 125.696 40.6756C125.673 40.6081 125.651 40.5405 125.628 40.4731L125.583 40.3831C125.561 40.3605 125.561 40.3155 125.538 40.293L125.336 40.1804Z" fill="black"></path> <path d="M119.551 44.2769C119.551 44.2769 119.529 44.2994 119.484 44.3669C119.439 44.4345 119.371 44.5244 119.281 44.637C119.101 44.8621 118.854 45.1772 118.561 45.5373C118.246 45.8974 117.908 46.3476 117.593 46.8428C117.503 46.9553 117.436 47.0904 117.368 47.2254C117.301 47.3605 117.211 47.4955 117.166 47.6305C117.098 47.7656 117.053 47.9232 116.986 48.0583C116.963 48.1257 116.941 48.2158 116.918 48.2833C116.895 48.3508 116.873 48.4409 116.873 48.5083C116.85 48.6659 116.828 48.801 116.85 48.9585C116.85 49.1161 116.895 49.2512 116.918 49.4087L116.941 49.4537C116.941 49.4537 116.963 49.4762 116.963 49.4987C116.986 49.5437 116.986 49.5662 117.008 49.6113C117.031 49.6788 117.076 49.7237 117.098 49.7913C117.166 49.9038 117.278 49.9714 117.391 49.9939C117.436 50.0164 117.503 49.9714 117.571 49.9714L117.661 49.9263L117.706 49.9038C117.728 49.9038 117.728 49.8813 117.728 49.8813C117.818 49.8363 117.841 49.7237 117.841 49.5888C117.841 49.4537 117.841 49.3187 117.886 49.1611C117.908 49.0485 117.976 48.9136 118.043 48.801C118.178 48.5984 118.314 48.4184 118.448 48.2833C118.561 48.1257 118.651 47.9906 118.696 47.8557C118.741 47.7206 118.764 47.608 118.764 47.5406C118.764 47.473 118.764 47.428 118.764 47.428C118.764 47.428 118.764 47.473 118.786 47.5406C118.786 47.608 118.809 47.7206 118.764 47.8557C118.719 47.9906 118.651 48.1482 118.539 48.3058C118.426 48.4633 118.291 48.6434 118.178 48.846C118.133 48.9585 118.088 49.0485 118.043 49.1836C118.021 49.2962 118.021 49.4087 118.021 49.5662C118.021 49.6338 118.021 49.7237 117.998 49.7913C117.976 49.8813 117.931 49.9489 117.841 50.0164C117.818 50.0389 117.796 50.0389 117.796 50.0614L117.751 50.0839L117.638 50.129C117.548 50.1515 117.481 50.174 117.368 50.174C117.166 50.174 117.008 50.0389 116.918 49.9038C116.873 49.8363 116.828 49.7689 116.783 49.6788C116.761 49.6338 116.761 49.6113 116.738 49.5662C116.738 49.5437 116.715 49.5437 116.715 49.4987L116.693 49.4312C116.648 49.2737 116.603 49.1161 116.603 48.936C116.58 48.7785 116.603 48.5984 116.625 48.4409C116.625 48.3508 116.67 48.2833 116.67 48.1932C116.693 48.1032 116.715 48.0358 116.738 47.9457C116.805 47.7881 116.85 47.6305 116.918 47.4955C116.986 47.3605 117.053 47.2029 117.143 47.0679C117.211 46.9328 117.301 46.7977 117.391 46.6853C117.571 46.4376 117.751 46.2126 117.931 45.9875C118.111 45.785 118.291 45.5823 118.448 45.4022C118.764 45.0421 119.056 44.7721 119.236 44.5696C119.439 44.3895 119.551 44.2769 119.551 44.2769Z" fill="black"></path> <path d="M122.05 47.9681L122.095 48.4858C122.095 48.6659 122.14 48.8234 122.162 49.0035C122.185 49.1836 122.23 49.3411 122.275 49.4987L122.342 49.7464L122.432 49.9939L122.522 50.2415L122.635 50.4666C122.703 50.6241 122.792 50.7817 122.86 50.9168C123.018 51.2093 123.198 51.5019 123.378 51.8171L123.648 52.2672C123.738 52.4247 123.805 52.5823 123.895 52.7399C123.963 52.8974 124.03 53.0775 124.075 53.235C124.098 53.325 124.12 53.4151 124.143 53.5051C124.165 53.5952 124.165 53.6853 124.188 53.7752C124.188 53.8653 124.188 53.9553 124.188 54.0454C124.188 54.1353 124.165 54.2254 124.165 54.3154C124.143 54.4055 124.12 54.4954 124.098 54.5855C124.075 54.6755 124.03 54.7656 123.963 54.8331C123.895 54.9232 123.828 54.9906 123.738 55.0356C123.648 55.0807 123.513 55.1032 123.423 55.0807C123.22 55.0356 123.063 54.9007 122.95 54.7656L123.153 54.7431C122.995 55.0356 123.063 55.3957 123.13 55.7334C123.22 56.071 123.355 56.4311 123.378 56.8138C123.4 56.9038 123.378 57.0164 123.378 57.1063C123.378 57.1964 123.355 57.3089 123.355 57.399C123.31 57.579 123.265 57.8041 123.085 57.9392C122.995 58.0066 122.883 58.0517 122.77 58.0517H122.68H122.657L122.635 58.0292L122.612 58.0066C122.567 57.9841 122.5 57.9391 122.455 57.8942C122.297 57.7366 122.252 57.5341 122.207 57.354C122.162 57.1739 122.14 56.9939 122.117 56.8138C122.095 56.6338 122.072 56.4537 122.027 56.2961C121.982 56.1161 121.937 55.9585 121.87 55.7785L121.667 55.2608C121.6 55.0807 121.532 54.9232 121.487 54.7431C121.442 54.563 121.397 54.383 121.352 54.2028C121.33 54.0227 121.33 53.8427 121.307 53.6401C121.307 53.4601 121.284 53.28 121.239 53.1L121.194 52.9874L121.127 52.8749C121.082 52.8073 121.037 52.7398 120.969 52.6499C120.924 52.5823 120.857 52.5148 120.834 52.4247C120.812 52.3797 120.812 52.3348 120.789 52.2896L120.767 52.1547L120.789 52.2896C120.812 52.3348 120.834 52.3797 120.834 52.4022C120.879 52.4697 120.924 52.5373 120.992 52.6048C121.059 52.6724 121.104 52.7399 121.149 52.8073C121.172 52.8524 121.194 52.8749 121.217 52.9199L121.262 53.055C121.33 53.235 121.33 53.4151 121.352 53.5952C121.375 53.7752 121.374 53.9553 121.419 54.1353C121.464 54.3154 121.51 54.473 121.577 54.653C121.645 54.8331 121.712 54.9906 121.78 55.1482L121.982 55.6434C122.05 55.8234 122.117 55.981 122.162 56.1611C122.23 56.3411 122.252 56.5212 122.275 56.7012C122.297 56.8813 122.32 57.0614 122.365 57.2189C122.41 57.3765 122.477 57.5565 122.567 57.6691C122.635 57.7591 122.815 57.7591 122.928 57.6691C123.04 57.579 123.085 57.4215 123.13 57.2639C123.153 57.1739 123.153 57.0838 123.153 57.0164C123.153 56.9038 123.153 56.8363 123.153 56.7462C123.13 56.4086 122.995 56.071 122.883 55.7109C122.837 55.5308 122.792 55.3507 122.792 55.1482C122.792 54.9457 122.815 54.7431 122.928 54.563C122.95 54.4954 123.018 54.4729 123.085 54.5179C123.108 54.5179 123.108 54.5404 123.13 54.5404C123.243 54.653 123.355 54.7656 123.49 54.7881C123.603 54.8106 123.738 54.7656 123.828 54.6305C123.873 54.563 123.895 54.4954 123.94 54.428C123.963 54.3604 123.985 54.2929 124.008 54.2028L124.03 53.9553C124.03 53.8653 124.03 53.7977 124.03 53.7077C124.03 53.6176 124.008 53.5502 124.008 53.4601C123.985 53.3701 123.963 53.3025 123.963 53.2126C123.918 53.055 123.873 52.8974 123.805 52.7399C123.738 52.5823 123.67 52.4247 123.58 52.2896L123.333 51.8396C123.175 51.5469 122.995 51.2318 122.837 50.9168C122.747 50.7592 122.68 50.6017 122.612 50.4441L122.5 50.1964L122.41 49.9489L122.32 49.7012L122.252 49.4537C122.207 49.2737 122.162 49.1161 122.162 48.936C122.14 48.756 122.117 48.5984 122.117 48.4183L122.05 47.9681Z" fill="black"></path> <path d="M131.143 26.4957L131.458 26.5633C131.571 26.5633 131.661 26.5858 131.774 26.5858C131.886 26.5858 131.976 26.5858 132.089 26.5633C132.201 26.5407 132.291 26.5407 132.381 26.4957C132.471 26.4732 132.584 26.4282 132.674 26.3832C132.764 26.3381 132.854 26.2931 132.944 26.2482C133.034 26.2032 133.124 26.1581 133.214 26.0906L133.349 26.0005L133.462 25.9105C133.552 25.8429 133.619 25.7755 133.687 25.6855C133.754 25.6179 133.822 25.5504 133.867 25.4603C133.934 25.3704 133.979 25.3028 134.047 25.2128L134.204 24.9426C134.317 24.7626 134.407 24.5825 134.542 24.4025C134.61 24.3125 134.677 24.2224 134.745 24.1324L134.97 23.8848C135.06 23.7948 135.15 23.7497 135.24 23.7047C135.33 23.6597 135.42 23.6373 135.51 23.5921L136.05 23.3896C136.23 23.3221 136.388 23.2545 136.568 23.1646C136.725 23.0745 136.883 22.962 136.928 22.8494C136.95 22.7819 136.95 22.7369 136.905 22.6694C136.905 22.6469 136.838 22.6244 136.77 22.6244C136.613 22.6244 136.433 22.6694 136.253 22.7144L135.712 22.872C135.622 22.8945 135.532 22.917 135.42 22.9395C135.33 22.962 135.217 22.9845 135.105 22.9845C135.06 22.9845 135.037 22.962 135.015 22.917L134.97 22.7144C134.97 22.6469 134.97 22.5794 134.97 22.5118C134.992 22.4443 134.992 22.3768 135.037 22.3093C135.082 22.2417 135.105 22.1967 135.15 22.1292C135.195 22.0842 135.24 22.0392 135.285 21.9941C135.33 21.9491 135.375 21.9041 135.442 21.8816C135.555 21.8141 135.645 21.7466 135.757 21.7015C135.982 21.589 136.185 21.4765 136.388 21.3639L136.523 21.2739L136.658 21.1614L136.77 21.0263L136.86 20.8913C136.905 20.8012 136.95 20.7112 136.995 20.6212C137.018 20.5311 137.04 20.4186 136.995 20.3736C136.95 20.3061 136.86 20.2836 136.748 20.2836C136.703 20.2836 136.658 20.2836 136.59 20.3061C136.545 20.3061 136.478 20.3286 136.433 20.3511C136.388 20.3736 136.343 20.3961 136.298 20.4186C136.253 20.4411 136.208 20.4861 136.185 20.5086C136.118 20.5762 136.027 20.6662 135.96 20.7337C135.892 20.8012 135.802 20.8913 135.712 20.9363C135.667 20.9588 135.622 20.9813 135.555 20.9813C135.51 20.9813 135.442 20.9813 135.397 20.9813C135.442 20.9813 135.51 20.9813 135.555 20.9588C135.6 20.9363 135.645 20.9138 135.69 20.8913C135.78 20.8463 135.847 20.7562 135.938 20.6887C136.005 20.6212 136.072 20.5311 136.163 20.4411C136.208 20.3961 136.23 20.3736 136.275 20.3286C136.32 20.3061 136.365 20.261 136.41 20.2385C136.478 20.216 136.5 20.1935 136.568 20.1935C136.613 20.171 136.68 20.171 136.725 20.171C136.793 20.171 136.838 20.171 136.905 20.1935C136.973 20.216 137.018 20.2385 137.063 20.3061C137.13 20.4186 137.13 20.5537 137.085 20.6662C137.063 20.7787 137.018 20.8688 136.95 20.9813L136.86 21.1614L136.748 21.3189L136.613 21.454L136.455 21.5665C136.253 21.7015 136.027 21.8141 135.825 21.9491C135.712 22.0167 135.622 22.0617 135.532 22.1292C135.487 22.1517 135.442 22.1967 135.397 22.2417C135.352 22.2868 135.307 22.3093 135.285 22.3543C135.24 22.3993 135.217 22.4443 135.195 22.4893C135.172 22.5343 135.172 22.5794 135.15 22.6244C135.15 22.6694 135.15 22.7144 135.15 22.7819L135.195 22.9395L135.105 22.872C135.172 22.872 135.262 22.8494 135.352 22.8494C135.442 22.8269 135.532 22.8044 135.622 22.7819L136.163 22.6019C136.343 22.5568 136.545 22.4893 136.77 22.4893C136.883 22.4893 137.04 22.5118 137.13 22.6694C137.175 22.7819 137.198 22.917 137.153 23.052C137.108 23.1646 137.018 23.2545 136.95 23.3221C136.86 23.3896 136.77 23.4347 136.703 23.5022C136.523 23.5921 136.343 23.6822 136.163 23.7497L135.622 23.9524C135.532 23.9749 135.442 24.0199 135.375 24.0648C135.285 24.1098 135.217 24.1549 135.172 24.1999L134.97 24.425C134.902 24.4926 134.835 24.5825 134.79 24.6726C134.677 24.8527 134.565 25.0102 134.452 25.1903L134.272 25.4603C134.227 25.5504 134.137 25.6404 134.092 25.7305C134.024 25.8204 133.957 25.888 133.867 25.978C133.799 26.0681 133.709 26.1356 133.619 26.1806L133.484 26.2931L133.349 26.3832C133.259 26.4282 133.169 26.4957 133.056 26.5407C132.966 26.5858 132.854 26.6308 132.764 26.6532C132.674 26.6982 132.561 26.7209 132.449 26.7433C132.336 26.7658 132.246 26.7883 132.134 26.7883C132.021 26.8108 131.931 26.7883 131.819 26.7883C131.706 26.7883 131.616 26.7658 131.503 26.7433L131.143 26.4957Z" fill="black"></path> <path d="M138.863 18.0328C138.953 17.8752 139.066 17.7177 139.178 17.5601C139.291 17.4026 139.403 17.2675 139.516 17.11C139.628 16.9749 139.763 16.8174 139.876 16.6823C140.011 16.5473 140.124 16.4122 140.259 16.2772C140.394 16.1421 140.529 16.0071 140.664 15.8946C140.799 15.7595 140.956 15.647 141.091 15.5344C141.249 15.4219 141.384 15.3093 141.542 15.1968C141.699 15.0843 141.857 14.9942 142.037 14.9042L142.284 14.7692L142.554 14.6566C142.734 14.5891 142.915 14.5216 143.117 14.4991C143.32 14.4766 143.522 14.4766 143.725 14.5891C143.815 14.6341 143.927 14.7241 143.972 14.8367C144.017 14.9492 144.017 15.0618 144.017 15.1743C143.995 15.2868 143.972 15.3769 143.927 15.4894C143.905 15.5569 143.815 15.692 143.747 15.7595C143.612 15.8946 143.432 16.0071 143.275 16.1196C143.117 16.2097 142.96 16.3222 142.87 16.4347C142.757 16.5473 142.712 16.7048 142.734 16.8624L142.622 16.7724C142.712 16.7724 142.802 16.7498 142.892 16.7498L143.185 16.7048C143.387 16.6598 143.59 16.6373 143.792 16.6373C143.905 16.6373 144.017 16.6598 144.13 16.7048C144.243 16.7498 144.355 16.8624 144.355 16.9974C144.378 17.11 144.333 17.2225 144.31 17.335C144.31 17.3576 144.287 17.3801 144.287 17.4026C144.265 17.4251 144.265 17.4476 144.243 17.4701C144.22 17.5151 144.175 17.5601 144.13 17.6051C143.972 17.7627 143.725 17.8077 143.545 17.8302C143.342 17.8527 143.14 17.8302 142.937 17.8302C142.734 17.8302 142.532 17.8302 142.374 17.9428C142.284 17.9878 142.217 18.0553 142.194 18.1453C142.149 18.2354 142.149 18.3254 142.127 18.4379C142.127 18.3479 142.127 18.2354 142.172 18.1453C142.194 18.0553 142.262 17.9653 142.352 17.8978C142.532 17.7852 142.734 17.7627 142.937 17.7402C143.14 17.7177 143.342 17.7177 143.522 17.6952C143.702 17.6727 143.905 17.6277 144.017 17.4926C144.04 17.4701 144.062 17.4251 144.085 17.3801C144.085 17.3576 144.107 17.335 144.107 17.3125C144.107 17.29 144.13 17.2675 144.13 17.245C144.153 17.155 144.175 17.065 144.153 16.9974C144.13 16.9299 144.085 16.8849 144.017 16.8399C143.95 16.8174 143.86 16.7949 143.747 16.7949C143.567 16.7949 143.365 16.8399 143.162 16.8624L142.87 16.9074C142.78 16.9299 142.667 16.9524 142.554 16.9524C142.509 16.9524 142.464 16.9074 142.442 16.8624C142.397 16.6373 142.487 16.4122 142.622 16.2547C142.757 16.0971 142.915 15.9846 143.072 15.8946C143.23 15.782 143.387 15.692 143.5 15.5794C143.522 15.5569 143.567 15.5119 143.567 15.4894C143.59 15.4669 143.612 15.4219 143.635 15.3769C143.657 15.3093 143.68 15.2193 143.702 15.1518C143.725 14.9942 143.68 14.8592 143.545 14.7917C143.41 14.7241 143.23 14.7016 143.072 14.7241C142.892 14.7241 142.734 14.7917 142.554 14.8592L142.307 14.9717L142.059 15.0843C141.902 15.1743 141.744 15.2643 141.587 15.3544C141.429 15.4444 141.272 15.5569 141.136 15.6695C140.979 15.782 140.844 15.8946 140.709 16.0071C140.574 16.1196 140.416 16.2547 140.281 16.3672C140.146 16.5023 140.011 16.6148 139.876 16.7498C139.741 16.8849 139.606 17.0199 139.493 17.155C139.358 17.29 139.246 17.4251 139.133 17.5826C139.088 17.7402 138.976 17.8978 138.863 18.0328Z" fill="black"></path> <path d="M152.143 18.8431C152.256 18.8431 152.323 18.9331 152.391 19.0006C152.458 19.0682 152.526 19.1582 152.571 19.2482C152.683 19.4058 152.773 19.5858 152.886 19.7659C152.976 19.946 153.066 20.126 153.156 20.3061C153.223 20.4861 153.313 20.6887 153.335 20.8913C153.381 21.0939 153.381 21.2964 153.381 21.499C153.381 21.7016 153.381 21.9041 153.359 22.1067C153.335 22.3093 153.313 22.5119 153.269 22.7144C153.223 22.917 153.201 23.1196 153.156 23.2996L153.021 23.8848C152.976 24.0873 152.931 24.29 152.863 24.4701C152.796 24.6726 152.728 24.8527 152.638 25.0552C152.548 25.2353 152.436 25.4378 152.278 25.5729C152.188 25.6404 152.098 25.708 151.985 25.753C151.94 25.7755 151.873 25.7755 151.805 25.7755H151.76C151.76 25.7755 151.783 25.7755 151.738 25.7755H151.715L151.648 25.753C151.603 25.7305 151.49 25.708 151.468 25.663C151.423 25.6179 151.378 25.5504 151.355 25.5054C151.31 25.3929 151.31 25.2803 151.31 25.1678C151.31 24.9427 151.355 24.7401 151.4 24.56C151.445 24.3575 151.49 24.1549 151.513 23.9974L151.648 24.11C151.558 24.1325 151.445 24.1774 151.378 24.2674C151.288 24.3575 151.22 24.4475 151.175 24.56C151.108 24.6726 151.063 24.7851 151.018 24.9202C150.973 25.0327 150.928 25.1678 150.905 25.2803C150.837 25.5279 150.77 25.7755 150.703 26.0456C150.635 26.2931 150.59 26.5633 150.477 26.8108C150.432 26.9459 150.365 27.0585 150.297 27.1709C150.23 27.2835 150.162 27.3961 150.095 27.5086C150.005 27.6211 149.937 27.7336 149.825 27.8237C149.712 27.9138 149.577 28.0038 149.42 27.9363C149.285 27.8912 149.172 27.7562 149.172 27.5987C149.172 27.4636 149.194 27.3285 149.239 27.1934C149.262 27.0585 149.307 26.9459 149.352 26.8108C149.397 26.6758 149.42 26.5633 149.42 26.4282C149.442 26.5633 149.397 26.6984 149.375 26.8333L149.285 27.2159C149.262 27.351 149.239 27.4861 149.239 27.5987C149.239 27.7111 149.33 27.8237 149.442 27.8462C149.555 27.8912 149.667 27.8237 149.757 27.7336C149.847 27.6436 149.937 27.5535 150.005 27.4411C150.14 27.2159 150.252 26.9909 150.342 26.7434C150.41 26.4957 150.477 26.2482 150.522 25.978C150.59 25.708 150.635 25.4603 150.703 25.1903C150.748 25.0552 150.77 24.9427 150.837 24.8077C150.883 24.6726 150.928 24.56 150.995 24.425C151.063 24.3125 151.13 24.1774 151.243 24.0649C151.333 23.9524 151.49 23.8848 151.648 23.8398C151.715 23.8173 151.805 23.8623 151.828 23.9073L151.873 23.9299C151.873 24.1549 151.76 24.3575 151.715 24.5376C151.67 24.7401 151.625 24.9202 151.603 25.1002C151.603 25.1903 151.603 25.2803 151.625 25.3479C151.648 25.3704 151.648 25.4153 151.67 25.4153C151.67 25.4378 151.693 25.4378 151.693 25.4378C151.715 25.4378 151.693 25.4603 151.738 25.4603C151.895 25.5054 152.053 25.4378 152.188 25.3254C152.323 25.2128 152.413 25.0552 152.503 24.8752C152.593 24.6951 152.661 24.5151 152.728 24.335C152.796 24.1549 152.841 23.9524 152.886 23.7723L153.021 23.1871C153.066 22.9845 153.111 22.8045 153.156 22.6019C153.201 22.3993 153.223 22.2192 153.246 22.0167C153.269 21.8141 153.291 21.634 153.291 21.4315C153.291 21.2289 153.291 21.0488 153.246 20.8463C153.223 20.6437 153.178 20.4636 153.111 20.2836C153.043 20.1035 152.976 19.9234 152.886 19.7209C152.796 19.5408 152.706 19.3608 152.616 19.1807C152.571 19.0907 152.503 19.0006 152.458 18.9331C152.323 18.9331 152.256 18.8431 152.143 18.8431Z" fill="black"></path> <path d="M146.831 26.9008C146.831 26.9008 146.831 26.9234 146.809 26.9684C146.786 27.0133 146.786 27.0808 146.741 27.1709C146.719 27.2159 146.696 27.2609 146.674 27.306C146.651 27.351 146.606 27.3959 146.584 27.4635C146.516 27.576 146.426 27.6886 146.313 27.8012C146.111 28.0262 145.841 28.2737 145.548 28.5214C145.256 28.7689 144.94 29.0391 144.715 29.3542C144.67 29.4442 144.603 29.5118 144.558 29.6017L144.513 29.6692V29.6918L144.49 29.7368C144.468 29.7818 144.445 29.8268 144.445 29.8719C144.4 30.052 144.355 30.2545 144.4 30.3896C144.445 30.5245 144.603 30.547 144.76 30.547C144.783 30.547 144.806 30.547 144.806 30.547L144.873 30.5245C144.918 30.502 144.963 30.502 144.986 30.4795C145.008 30.457 145.053 30.4346 145.076 30.4346C145.098 30.4121 145.143 30.3896 145.166 30.367C145.278 30.277 145.368 30.1644 145.458 30.0744C145.548 29.9844 145.616 29.8944 145.683 29.8268C145.751 29.7593 145.796 29.7143 145.841 29.6692C145.886 29.6467 145.886 29.6242 145.886 29.6242C145.886 29.6242 145.863 29.6467 145.841 29.6918C145.818 29.7368 145.773 29.7818 145.728 29.8719C145.683 29.9394 145.616 30.0295 145.548 30.1419C145.481 30.2545 145.391 30.367 145.278 30.4795C145.256 30.502 145.211 30.547 145.188 30.5696C145.143 30.5921 145.121 30.6146 145.076 30.6596C145.031 30.6821 144.986 30.7046 144.963 30.7272L144.895 30.7497H144.873H144.851H144.806C144.715 30.7722 144.603 30.7722 144.49 30.7497C144.378 30.7272 144.265 30.6146 144.22 30.502C144.13 30.277 144.198 30.052 144.243 29.8493C144.265 29.8043 144.288 29.7368 144.288 29.6918L144.31 29.6467V29.6242V29.6017L144.355 29.5343C144.4 29.4442 144.468 29.3542 144.535 29.2641C144.806 28.9265 145.121 28.6565 145.413 28.4088C145.706 28.1613 145.998 27.9587 146.223 27.7561C146.336 27.6436 146.426 27.5535 146.516 27.4635C146.561 27.4184 146.584 27.3735 146.629 27.3285C146.651 27.2835 146.674 27.2384 146.696 27.2159C146.741 27.1484 146.764 27.0808 146.786 27.0358C146.831 26.9234 146.831 26.9008 146.831 26.9008Z" fill="black"></path> <path d="M142.735 34.4635C142.69 34.5311 142.645 34.5986 142.577 34.6662C142.533 34.7337 142.465 34.8011 142.42 34.8462C142.307 34.9587 142.195 35.0938 142.06 35.2064C141.812 35.4314 141.565 35.6339 141.295 35.8365C141.16 35.9266 141.024 36.0165 140.867 36.1066C140.732 36.1967 140.574 36.2642 140.417 36.3542C140.349 36.3993 140.259 36.4218 140.192 36.4443C140.124 36.4668 140.034 36.5117 139.944 36.5342C139.854 36.5568 139.764 36.5793 139.697 36.5793C139.606 36.6018 139.517 36.5793 139.426 36.5793C139.359 36.5793 139.314 36.5342 139.314 36.4892C139.314 36.4892 139.314 36.4892 139.314 36.4668V36.4443L139.336 36.3317V36.1967V36.0617C139.336 36.0392 139.336 36.0165 139.336 35.9716L139.359 35.8816L139.517 36.0165C139.426 36.0617 139.336 36.1066 139.269 36.1741C139.179 36.2417 139.089 36.2867 138.999 36.3542L138.841 36.4218C138.796 36.4443 138.729 36.4668 138.684 36.4668H138.594C138.571 36.4668 138.526 36.4668 138.504 36.4668L138.324 36.4443C138.301 36.4443 138.279 36.4218 138.279 36.3993L138.256 36.2642C138.256 36.2192 138.256 36.1741 138.256 36.1291C138.256 36.0841 138.279 36.0392 138.279 35.9941L138.324 35.8591C138.346 35.814 138.369 35.769 138.391 35.7465C138.414 35.7015 138.459 35.6791 138.481 35.6339C138.526 35.6114 138.549 35.5665 138.594 35.544L138.706 35.4764L138.616 35.5665C138.594 35.589 138.549 35.6339 138.526 35.6564C138.504 35.7015 138.481 35.724 138.459 35.769C138.436 35.814 138.414 35.8591 138.414 35.8816L138.391 35.9941C138.391 36.0392 138.391 36.0841 138.391 36.1291L138.414 36.2417L138.459 36.3542L138.414 36.3092H138.549C138.571 36.3092 138.594 36.3092 138.616 36.2867L138.684 36.2642C138.729 36.2417 138.774 36.2192 138.819 36.2192L138.954 36.1516C139.044 36.0841 139.111 36.0392 139.201 35.9716C139.291 35.9041 139.381 35.8591 139.471 35.7915C139.517 35.769 139.584 35.7915 139.606 35.8365C139.606 35.8591 139.629 35.8816 139.629 35.9041V35.9266V35.9716C139.629 35.9941 139.629 35.9941 139.629 36.0392V36.1741V36.3317L139.606 36.4892L139.494 36.3542C139.561 36.3542 139.629 36.3542 139.719 36.3317C139.787 36.3092 139.877 36.3092 139.944 36.2867C140.012 36.2642 140.102 36.2417 140.169 36.2192C140.237 36.1967 140.327 36.1741 140.394 36.1291C140.462 36.1066 140.529 36.0617 140.619 36.0165C140.687 35.9716 140.754 35.9491 140.844 35.9041C140.979 35.8365 141.115 35.7465 141.272 35.6564C141.542 35.4764 141.812 35.2963 142.082 35.0938C142.24 34.8912 142.488 34.6887 142.735 34.4635Z" fill="black"></path> <path d="M133.799 36.8718C133.799 36.8718 133.754 36.8943 133.687 36.9168C133.619 36.9394 133.506 37.0069 133.394 37.0744C133.281 37.142 133.124 37.2544 132.966 37.367C132.809 37.5021 132.651 37.6372 132.471 37.8172C132.111 38.1548 131.751 38.6049 131.368 39.0776C131.323 39.1451 131.278 39.1902 131.233 39.2577C131.188 39.3252 131.143 39.3703 131.098 39.4377C131.008 39.5728 130.941 39.7079 130.873 39.8428C130.738 40.1355 130.603 40.4281 130.49 40.7433C130.445 40.9008 130.4 41.0583 130.378 41.1933C130.355 41.3509 130.355 41.5085 130.423 41.5986C130.423 41.621 130.445 41.621 130.445 41.621L130.468 41.6435C130.49 41.666 130.535 41.711 130.558 41.711C130.558 41.711 130.58 41.711 130.58 41.7335C130.603 41.7335 130.603 41.7335 130.625 41.7335C130.648 41.7335 130.67 41.7335 130.715 41.7335C130.828 41.711 130.941 41.5986 131.053 41.486C131.166 41.3734 131.256 41.2609 131.346 41.1483C131.458 41.0358 131.548 40.9233 131.683 40.8332C131.773 40.7882 131.841 40.7882 131.908 40.7657C131.998 40.7657 132.066 40.7657 132.133 40.7657C132.269 40.7657 132.381 40.7882 132.494 40.7433C132.539 40.7206 132.584 40.6981 132.629 40.6756C132.651 40.6532 132.719 40.5857 132.741 40.5632C132.809 40.4731 132.854 40.4056 132.921 40.3155C133.034 40.1355 133.101 39.9779 133.191 39.8655C133.236 39.7979 133.259 39.7529 133.304 39.7079C133.326 39.6628 133.371 39.6178 133.394 39.5953C133.439 39.5503 133.484 39.5052 133.484 39.5052C133.484 39.5052 133.461 39.5278 133.416 39.5953C133.394 39.6178 133.371 39.6628 133.326 39.7079C133.304 39.7529 133.259 39.7979 133.236 39.8655C133.169 40.0004 133.101 40.158 133.011 40.338C132.966 40.4281 132.921 40.5181 132.854 40.6307C132.809 40.6756 132.786 40.7206 132.741 40.7657C132.696 40.8107 132.629 40.8557 132.561 40.8782C132.426 40.9233 132.291 40.9233 132.156 40.9233C132.088 40.9233 132.021 40.9233 131.976 40.9458C131.908 40.9683 131.841 40.9683 131.796 41.0133C131.706 41.0809 131.616 41.1933 131.526 41.3059C131.436 41.4185 131.346 41.531 131.233 41.666C131.121 41.7786 131.008 41.9136 130.805 41.9812C130.76 42.0037 130.715 42.0037 130.648 42.0037C130.625 42.0037 130.603 42.0037 130.558 42.0037C130.535 42.0037 130.513 41.9812 130.468 41.9812C130.4 41.9587 130.378 41.9362 130.355 41.9136L130.333 41.8911L130.31 41.8686L130.288 41.8461C130.265 41.8236 130.243 41.8011 130.243 41.7786C130.13 41.5986 130.153 41.3959 130.175 41.2158C130.198 41.0358 130.243 40.8782 130.288 40.7206C130.4 40.4056 130.535 40.0905 130.693 39.7979C130.76 39.6628 130.85 39.5052 130.941 39.3703C130.986 39.3027 131.03 39.2352 131.076 39.1677C131.121 39.1001 131.166 39.0551 131.233 38.9875C131.638 38.515 132.043 38.0872 132.403 37.7721C132.584 37.6147 132.764 37.4571 132.944 37.3445C133.101 37.2319 133.259 37.142 133.394 37.0744C133.529 37.0069 133.642 36.9619 133.709 36.9394C133.754 36.8718 133.799 36.8718 133.799 36.8718Z" fill="black"></path> <path d="M131.053 46.4376C131.098 46.8653 131.211 47.2929 131.391 47.6981C131.436 47.7881 131.481 47.9007 131.526 47.9906C131.571 48.0807 131.639 48.1707 131.684 48.2608C131.751 48.3508 131.819 48.4184 131.886 48.4858C131.931 48.5308 131.954 48.5534 131.999 48.5759C132.044 48.5984 132.089 48.6434 132.134 48.6434C132.224 48.6884 132.314 48.7109 132.404 48.7335H132.539C132.584 48.7335 132.651 48.7109 132.696 48.7109C132.786 48.6884 132.877 48.6434 132.877 48.5984C132.899 48.5534 132.877 48.4633 132.832 48.3734C132.786 48.2833 132.741 48.1932 132.696 48.0807C132.651 47.9682 132.584 47.8782 132.584 47.7206C132.584 47.653 132.606 47.5406 132.674 47.473C132.741 47.4055 132.809 47.383 132.877 47.383C133.012 47.3605 133.124 47.3605 133.237 47.3605L133.147 47.4055C133.169 47.383 133.169 47.3605 133.192 47.338C133.192 47.3154 133.214 47.2929 133.214 47.2704C133.214 47.2479 133.214 47.2254 133.192 47.2029C133.192 47.1805 133.169 47.158 133.147 47.1353C133.102 47.0904 133.057 47.0454 133.012 47.0004C132.967 46.9553 132.899 46.9103 132.832 46.8878C132.696 46.8203 132.561 46.7527 132.426 46.6628C132.359 46.6177 132.291 46.5727 132.224 46.5277C132.201 46.5052 132.156 46.4827 132.134 46.4376C132.111 46.4151 132.066 46.3701 132.044 46.3251C131.999 46.2351 131.976 46.1451 131.954 46.055C131.931 45.965 131.931 45.8749 131.931 45.785C131.931 45.6049 131.954 45.4247 131.976 45.2447C132.044 44.9072 132.179 44.5696 132.359 44.2769C132.201 44.592 132.111 44.9297 132.089 45.2673C132.066 45.4474 132.066 45.6049 132.066 45.785C132.066 45.8749 132.089 45.9424 132.111 46.0325C132.134 46.1226 132.156 46.1901 132.201 46.2575C132.224 46.28 132.246 46.3027 132.269 46.3251C132.291 46.3476 132.314 46.3701 132.359 46.3926C132.426 46.4376 132.471 46.4601 132.539 46.5052C132.674 46.5727 132.809 46.6403 132.944 46.7078C133.012 46.7527 133.079 46.7752 133.147 46.8203C133.214 46.8653 133.282 46.9103 133.349 47.0004L133.394 47.0454L133.417 47.1129C133.439 47.1578 133.439 47.2029 133.462 47.2704C133.462 47.3154 133.439 47.383 133.439 47.428L133.372 47.5631C133.349 47.5856 133.327 47.6305 133.282 47.6305H133.259C133.147 47.6305 133.057 47.608 132.967 47.6305C132.922 47.6305 132.899 47.653 132.877 47.653C132.854 47.6756 132.854 47.6755 132.854 47.6981C132.854 47.7656 132.899 47.8557 132.944 47.9457C132.989 48.0358 133.034 48.1482 133.079 48.2383C133.124 48.3508 133.169 48.4858 133.102 48.6434C133.079 48.7335 133.012 48.7785 132.944 48.8235C132.877 48.8684 132.832 48.8684 132.764 48.8911C132.696 48.9136 132.652 48.9136 132.584 48.9136C132.516 48.9136 132.449 48.9136 132.404 48.9136C132.291 48.8911 132.156 48.8684 132.066 48.801C132.021 48.7785 131.976 48.7335 131.909 48.6884C131.864 48.6434 131.819 48.6209 131.774 48.5759C131.684 48.4858 131.639 48.3959 131.571 48.3058C131.504 48.2158 131.459 48.1032 131.414 48.0131C131.368 47.9232 131.323 47.8106 131.279 47.6981C131.211 47.4955 131.166 47.2704 131.121 47.0454C131.076 46.8878 131.053 46.6628 131.053 46.4376Z" fill="black"></path> <path d="M137.49 49.8363C137.603 49.8813 137.693 49.9489 137.806 49.9939C137.918 50.0389 138.008 50.084 138.121 50.1514C138.166 50.1964 138.233 50.2189 138.278 50.264C138.323 50.309 138.368 50.3315 138.413 50.399C138.458 50.4441 138.503 50.4891 138.526 50.5565C138.548 50.6016 138.593 50.6466 138.616 50.7141C138.661 50.8267 138.706 50.9393 138.751 51.0292C138.773 51.1418 138.818 51.2769 138.841 51.3893L138.931 52.0646C138.953 52.2896 138.931 52.4923 138.976 52.6724C138.999 52.7623 139.021 52.8298 139.089 52.8974C139.133 52.9424 139.224 52.9874 139.314 53.01C139.359 53.01 139.404 53.0325 139.449 53.0325C139.494 53.0325 139.539 53.0325 139.561 53.0325C139.606 53.0325 139.629 53.01 139.651 52.9649C139.674 52.9424 139.696 52.8974 139.696 52.8524C139.741 52.6724 139.741 52.4472 139.764 52.2447C139.786 52.3572 139.786 52.4472 139.809 52.5598C139.809 52.6724 139.831 52.7623 139.809 52.8749C139.809 52.9199 139.786 52.9874 139.764 53.0325C139.741 53.0775 139.674 53.1449 139.606 53.1674C139.584 53.19 139.539 53.19 139.516 53.19C139.494 53.19 139.449 53.19 139.426 53.19C139.359 53.19 139.314 53.1674 139.246 53.1674C139.133 53.1449 139.021 53.1224 138.908 53.0325C138.863 52.9874 138.818 52.9424 138.796 52.8749C138.773 52.8298 138.751 52.7623 138.728 52.6949C138.661 52.4697 138.683 52.2671 138.661 52.0646C138.616 51.8396 138.593 51.5919 138.571 51.3669L138.526 51.0517C138.503 50.9393 138.458 50.8267 138.413 50.7141C138.391 50.6691 138.368 50.6241 138.346 50.579C138.323 50.534 138.278 50.4891 138.256 50.4441C138.233 50.399 138.188 50.354 138.143 50.309C138.098 50.264 138.053 50.2415 138.031 50.1964C137.941 50.1289 137.851 50.0613 137.761 49.9939C137.671 49.9714 137.58 49.9039 137.49 49.8363Z" fill="black"></path> <path d="M142.735 51.3669L142.78 52.4022V52.6723C142.78 52.7624 142.78 52.8523 142.78 52.9424C142.78 53.1225 142.78 53.3025 142.757 53.4601C142.757 53.6402 142.712 53.8202 142.69 53.9778L142.622 54.2479L142.555 54.4955C142.532 54.5854 142.51 54.6755 142.487 54.7656C142.465 54.8556 142.42 54.9457 142.375 55.0131C142.33 55.1031 142.285 55.1707 142.217 55.2607L142.105 55.3733C142.059 55.3957 142.015 55.4182 141.97 55.4633C141.879 55.5083 141.789 55.5533 141.654 55.5533C141.609 55.5533 141.587 55.5533 141.542 55.5533C141.497 55.5533 141.474 55.5308 141.429 55.5083C141.384 55.4858 141.384 55.4633 141.362 55.4182C141.339 55.3957 141.339 55.3508 141.317 55.3283C141.272 55.2157 141.272 55.1257 141.249 55.0356C141.227 54.9457 141.204 54.8781 141.159 54.7881L141.294 54.8556C141.227 54.8781 141.159 54.9906 141.137 55.1031C141.092 55.2157 141.092 55.3508 141.069 55.4858C141.047 55.7559 141.047 56.026 141.069 56.296C141.069 56.5662 141.092 56.8362 141.114 57.1288C141.137 57.399 141.159 57.6915 141.159 57.9617C141.159 58.0291 141.159 58.0967 141.137 58.1867C141.114 58.2768 141.092 58.3218 141.069 58.3892C141.024 58.5243 140.957 58.6594 140.867 58.7945C140.822 58.8619 140.754 58.9295 140.664 58.952C140.551 58.9745 140.461 58.9069 140.416 58.8619C140.304 58.7269 140.259 58.6144 140.214 58.4568L140.169 58.2543C140.169 58.1867 140.169 58.0967 140.169 58.0291C140.169 57.9617 140.191 57.8942 140.191 57.8266L140.236 57.624C140.281 57.489 140.304 57.354 140.326 57.2189C140.326 57.1513 140.349 57.0839 140.349 57.0164V56.8137L140.371 57.0164C140.371 57.0839 140.371 57.1513 140.371 57.2189C140.349 57.354 140.326 57.489 140.304 57.624L140.281 57.8266C140.281 57.8942 140.281 57.9617 140.281 58.0291C140.281 58.0967 140.281 58.1642 140.304 58.2318L140.349 58.4344C140.394 58.5468 140.461 58.6819 140.529 58.7495C140.574 58.7945 140.619 58.817 140.642 58.7945C140.687 58.7945 140.709 58.7495 140.754 58.7044C140.822 58.6144 140.867 58.4793 140.912 58.3443C140.934 58.2993 140.957 58.2092 140.957 58.1642C140.957 58.0967 140.957 58.0291 140.957 57.9617C140.957 57.4215 140.867 56.8588 140.844 56.3187C140.822 56.0485 140.822 55.7559 140.844 55.4633C140.844 55.3283 140.867 55.1707 140.912 55.0356C140.934 54.9682 140.957 54.8781 141.002 54.8106C141.047 54.743 141.114 54.6755 141.204 54.6305C141.249 54.608 141.317 54.6305 141.339 54.698C141.384 54.7881 141.407 54.9006 141.429 54.9906C141.452 55.0806 141.474 55.1707 141.497 55.2382C141.497 55.2607 141.519 55.2607 141.519 55.2833L141.542 55.3058H141.564C141.564 55.3058 141.587 55.3058 141.609 55.3058C141.632 55.3058 141.677 55.3058 141.722 55.2833C141.767 55.2833 141.812 55.2607 141.834 55.2382C141.857 55.2157 141.879 55.2157 141.924 55.1932L141.992 55.1257C142.037 55.0581 142.082 54.9907 142.127 54.923C142.172 54.8556 142.195 54.7656 142.217 54.698C142.24 54.6305 142.285 54.5404 142.307 54.4505L142.375 54.2028L142.442 53.9553C142.465 53.7752 142.51 53.6177 142.532 53.4376C142.555 53.2575 142.577 53.1 142.577 52.9199C142.6 52.7399 142.6 52.5823 142.6 52.4022C142.712 52.0646 142.712 51.7045 142.735 51.3669Z" fill="black"></path> <path d="M117.098 12.766C117.571 12.766 117.571 12.0457 117.098 12.0457C116.625 12.0457 116.625 12.766 117.098 12.766Z" fill="#FB0031"></path> <path d="M116.738 12.1808C116.513 12.6985 116.693 13.2837 116.896 13.7788C117.121 14.319 117.436 14.9042 117.909 15.2869C118.224 15.5344 118.606 15.5795 118.876 15.2869C118.989 15.1743 119.079 15.0393 119.146 14.9042C119.169 14.8817 119.237 14.8142 119.169 14.8367C119.101 14.8592 119.259 14.9492 119.327 15.0168C119.552 15.2418 119.934 15.0618 119.934 14.7692C119.934 14.3866 119.957 14.0264 119.844 13.6663C119.709 13.2161 119.011 13.4187 119.146 13.8689C119.236 14.1615 119.214 14.4766 119.214 14.7692C119.417 14.6792 119.619 14.5891 119.822 14.5216C119.574 14.2515 119.237 14.0264 118.854 14.2065C118.606 14.319 118.516 14.5666 118.359 14.7917C118.314 14.8592 118.291 14.8367 118.381 14.8142C118.426 14.8142 118.314 14.7692 118.291 14.7242C118.156 14.5216 117.976 14.3415 117.841 14.1165C117.638 13.7788 117.166 12.9911 117.346 12.5859C117.548 12.1133 116.918 11.7531 116.738 12.1808Z" fill="#FB0031"></path> <path d="M116.738 13.4412C116.738 13.4862 116.738 13.5537 116.738 13.5987C116.738 13.7788 116.895 13.9589 117.098 13.9589C117.301 13.9589 117.458 13.8013 117.458 13.5987C117.458 13.5537 117.458 13.4862 117.458 13.4412C117.458 13.2611 117.301 13.0811 117.098 13.0811C116.895 13.1036 116.738 13.2386 116.738 13.4412Z" fill="#FB0031"></path> <path d="M116.851 11.9106C116.873 12.2933 116.896 12.6759 116.963 13.036C117.031 13.4187 117.098 13.7788 117.233 14.1164C117.301 14.2965 117.391 14.454 117.481 14.6116C117.526 14.6791 117.593 14.7691 117.638 14.8142C117.683 14.8817 117.774 14.9492 117.819 14.9942C117.909 15.0617 117.976 15.1068 118.044 15.1293C118.111 15.1518 118.179 15.1518 118.246 15.1293C118.314 15.1068 118.381 15.0392 118.471 14.9717C118.561 14.9042 118.719 14.9042 118.831 14.9267H118.854C118.921 14.9717 118.989 15.0167 119.011 15.0617C119.056 15.1068 119.079 15.1743 119.124 15.2193C119.191 15.3318 119.236 15.4219 119.304 15.5344L119.462 15.8495C119.507 15.9395 119.574 16.0521 119.619 16.1196C119.754 16.2997 119.912 16.4797 120.092 16.6148C120.137 16.6373 120.182 16.6598 120.227 16.6823C120.272 16.7048 120.317 16.7048 120.362 16.7048C120.407 16.7048 120.429 16.6823 120.474 16.6598C120.542 16.6148 120.542 16.5923 120.564 16.5473C120.587 16.5022 120.587 16.4572 120.587 16.4122C120.587 16.3672 120.587 16.2997 120.564 16.2547C120.542 16.1421 120.497 16.0296 120.429 15.9395C120.317 15.737 120.182 15.5344 120.047 15.3318L119.912 15.0167C119.867 14.9042 119.844 14.8142 119.822 14.7016C119.799 14.5891 119.777 14.4765 119.777 14.364C119.777 14.319 119.777 14.2515 119.777 14.2064V14.0489C119.799 13.8238 119.822 13.6212 119.844 13.3962C119.867 13.1711 119.889 12.9685 119.912 12.7434V13.0586C119.912 13.1711 119.912 13.2836 119.912 13.3737C119.912 13.5987 119.889 13.8013 119.889 14.0264L119.912 14.1839C119.912 14.229 119.912 14.2965 119.934 14.3415C119.957 14.454 119.957 14.5441 120.002 14.6566C120.047 14.7466 120.069 14.8592 120.114 14.9492L120.249 15.2418C120.407 15.4444 120.542 15.6469 120.677 15.872C120.745 15.9846 120.79 16.0971 120.835 16.2321C120.857 16.2997 120.857 16.3672 120.857 16.4347C120.857 16.5022 120.857 16.5923 120.812 16.6598C120.812 16.7048 120.767 16.7273 120.745 16.7723C120.722 16.8174 120.7 16.8174 120.677 16.8399C120.632 16.8849 120.542 16.9299 120.452 16.9524C120.362 16.9524 120.294 16.9524 120.227 16.9299C120.159 16.9074 120.092 16.8849 120.047 16.8399C119.934 16.7723 119.822 16.6823 119.732 16.5923C119.642 16.5022 119.552 16.4122 119.484 16.2997C119.394 16.1871 119.349 16.0971 119.282 15.9846L119.124 15.6694C119.079 15.5569 119.011 15.4669 118.966 15.3768C118.944 15.3318 118.899 15.2868 118.876 15.2418C118.854 15.1968 118.809 15.1743 118.786 15.1518H118.809C118.741 15.1293 118.674 15.1293 118.606 15.1743C118.539 15.2193 118.471 15.2868 118.359 15.3318C118.246 15.3994 118.089 15.3769 117.999 15.3318C117.886 15.2868 117.796 15.2193 117.729 15.1743C117.638 15.1068 117.571 15.0392 117.503 14.9492C117.436 14.8817 117.391 14.7917 117.323 14.7016C117.233 14.5216 117.143 14.3415 117.076 14.1614C116.963 13.8013 116.873 13.4187 116.851 13.036C116.851 12.6759 116.828 12.2933 116.851 11.9106Z" fill="black"></path> <path d="M65.2404 55.3507H59.8835L47.8419 29.6694L36.0702 55.6209H33.1667L49.1023 19.4507L65.2404 55.3507Z" fill="black"></path> <path d="M54.5266 55.3507H49.1922L37.1506 29.6693L25.379 55.6208H22.4755L38.3885 19.4507L54.5266 55.3507Z" fill="black"></path> </svg> 