<?xml version="1.0" encoding="UTF-8"?> <svg xmlns="http://www.w3.org/2000/svg" width="40" height="40" viewBox="0 0 40 40" fill="none"> <path d="M38.2079 2.80321H20.896V1.7947C20.896 1.29985 20.4948 0.898682 20 0.898682C19.5052 0.898682 19.104 1.29985 19.104 1.7947V2.80321H1.79211C0.803906 2.80321 0 3.60712 0 4.59532V6.25813C0 7.24626 0.803906 8.05024 1.79211 8.05024H2.03562V28.1905C2.03562 29.1786 2.83953 29.9826 3.82773 29.9826H19.104V32.6124L12.4639 37.483C12.0649 37.7757 11.9786 38.3365 12.2713 38.7355C12.5641 39.1345 13.1248 39.2207 13.5238 38.9281L19.104 34.8349V38.2056C19.104 38.7004 19.5052 39.1016 20 39.1016C20.4949 39.1016 20.896 38.7004 20.896 38.2056V34.8349L26.4762 38.9281C26.6359 39.0452 26.8215 39.1017 27.0055 39.1017C27.2812 39.1017 27.5531 38.9749 27.7287 38.7356C28.0214 38.3366 27.9352 37.7758 27.5361 37.4831L20.896 32.6125V29.9827H36.1723C37.1604 29.9827 37.9644 29.1788 37.9644 28.1906V8.05017H38.2079C39.196 8.05017 40 7.24626 40 6.25806V4.59532C40 3.60712 39.1961 2.80321 38.2079 2.80321ZM36.1723 28.1903H3.82773V8.05017H36.1723V28.1903H36.1723ZM38.2079 6.25806H1.79211V4.59532H38.208V6.25806H38.2079Z" fill="#343B3B"></path> <path d="M19.983 10.645C19.5376 10.645 19.1766 11.006 19.1766 11.4514V17.6356H12.9924C12.5471 17.6356 12.186 17.9966 12.186 18.442C12.186 22.7413 15.6838 26.2389 19.9831 26.2389C24.2824 26.2389 27.7802 22.7412 27.7802 18.442C27.7802 14.1428 24.2823 10.645 19.983 10.645ZM19.983 24.6261C16.8463 24.6261 14.2476 22.2788 13.8512 19.2485H19.983C20.4284 19.2485 20.7894 18.8874 20.7894 18.4421V12.3103C23.8197 12.7067 26.1671 15.3053 26.1671 18.4421C26.1672 21.852 23.393 24.6261 19.983 24.6261Z" fill="#343B3B"></path> <path d="M17.2535 9.81055C13.9994 9.81055 11.352 12.4583 11.352 15.7127C11.352 16.1581 11.713 16.5191 12.1584 16.5191H17.2535C17.6989 16.5191 18.0599 16.1581 18.0599 15.7127V10.617C18.06 10.1716 17.6989 9.81055 17.2535 9.81055ZM16.4471 14.9063H13.0409C13.3693 13.1866 14.7276 11.828 16.4471 11.4995V14.9063Z" fill="#343B3B"></path> </svg> 