<?xml version="1.0" encoding="UTF-8"?> <svg xmlns="http://www.w3.org/2000/svg" width="80" height="80" viewBox="0 0 80 80" fill="none"> <g clip-path="url(#clip0)"> <path d="M32.8686 70.9196L32.6336 72.0676L32.8601 70.9183C32.2253 70.7932 31.6089 71.2064 31.4837 71.8412C31.3586 72.4766 31.7718 73.0924 32.4072 73.2175C32.409 73.2181 32.4267 73.2212 32.4286 73.2218C32.503 73.2358 32.5769 73.2432 32.6501 73.2432C33.2013 73.2432 33.6926 72.8525 33.7994 72.291C33.9215 71.655 33.5046 71.041 32.8686 70.9196Z" fill="#343B3B"></path> <path d="M41.8285 71.2965L41.9451 72.4623L41.8249 71.2971C41.181 71.3631 40.7128 71.9386 40.7793 72.5825C40.841 73.1856 41.35 73.6348 41.9433 73.6348C41.9836 73.6348 42.0245 73.6323 42.0647 73.6287L42.0971 73.625C42.738 73.5499 43.1927 72.9719 43.1213 72.3311C43.0492 71.6908 42.4694 71.2294 41.8285 71.2965V71.2965Z" fill="#343B3B"></path> <path d="M37.3425 71.4442C37.3425 71.4442 37.326 71.4436 37.3254 71.4436C36.6796 71.4143 36.1401 71.916 36.1108 72.5624C36.0821 73.2087 36.5899 73.7562 37.2363 73.7855C37.2546 73.7867 37.2723 73.7867 37.2906 73.7867C37.9131 73.7867 38.4319 73.2966 38.46 72.668C38.4893 72.0216 37.9894 71.4735 37.3425 71.4442V71.4442Z" fill="#343B3B"></path> <path d="M28.54 69.7289L28.5254 69.7234C27.9162 69.5049 27.2522 69.8235 27.0337 70.4327C26.8146 71.0418 27.138 71.7156 27.7472 71.9348C27.8784 71.9818 28.0121 72.0037 28.1433 72.0037C28.6236 72.0037 29.0747 71.7065 29.2462 71.228C29.4653 70.6188 29.1492 69.9474 28.54 69.7289V69.7289Z" fill="#343B3B"></path> <path d="M46.2511 70.4761L46.5398 71.612L46.2475 70.4774C45.6206 70.6385 45.2434 71.2775 45.4046 71.9044C45.5407 72.4329 46.0168 72.7845 46.5386 72.7845C46.6357 72.7845 46.7339 72.7723 46.8322 72.7466C46.8371 72.7454 46.8578 72.7399 46.8633 72.7387C47.4853 72.569 47.849 71.93 47.683 71.3068C47.517 70.6843 46.8755 70.3138 46.2511 70.4761V70.4761Z" fill="#343B3B"></path> <path d="M50.4876 68.9983L50.952 70.0737L50.4839 68.9995C49.8906 69.2583 49.619 69.9486 49.8772 70.5419C50.0695 70.9832 50.5004 71.2462 50.9527 71.2462C51.1083 71.2462 51.2676 71.2145 51.4196 71.1486C51.4245 71.1461 51.4434 71.1382 51.4483 71.1357C52.036 70.8702 52.2954 70.1818 52.033 69.5928C51.7705 69.0032 51.0784 68.7389 50.4876 68.9983V68.9983Z" fill="#343B3B"></path> <path d="M24.0637 15.5781C24.2517 15.5781 24.4427 15.5329 24.6191 15.4389C25.1904 15.1343 25.4058 14.4245 25.1013 13.8532C24.7967 13.2825 24.0875 13.0659 23.5162 13.371L23.5021 13.3784C22.9315 13.6829 22.7221 14.3891 23.0267 14.9604C23.2366 15.3547 23.6444 15.5781 24.0637 15.5781Z" fill="#343B3B"></path> <path d="M10.5084 28.6671C10.6824 28.758 10.8685 28.8014 11.0522 28.8014C11.474 28.8014 11.8817 28.5731 12.0911 28.1733L12.1118 28.1324C12.3974 27.5514 12.1582 26.8489 11.5771 26.5638C11.0004 26.2794 10.3033 26.5138 10.014 27.0869C9.71495 27.6594 9.9359 28.3668 10.5084 28.6671Z" fill="#343B3B"></path> <path d="M8.85863 33.0757C8.98315 33.1178 9.10949 33.138 9.23461 33.138C9.72289 33.138 10.1788 32.8297 10.3442 32.3415L10.3595 32.2951C10.5499 31.6768 10.2026 31.0207 9.58373 30.8308C8.97033 30.6416 8.31908 30.9822 8.12316 31.5926C7.91747 32.2047 8.24645 32.8688 8.85863 33.0757Z" fill="#343B3B"></path> <path d="M12.8204 24.5672C13.0285 24.7186 13.2696 24.7918 13.5089 24.7918C13.8708 24.7918 14.2285 24.624 14.4574 24.309L14.4726 24.2883C14.8486 23.7621 14.7259 23.0322 14.201 22.6562C13.6755 22.2796 12.9431 22.4005 12.5659 22.9254L13.5101 23.6199L12.5622 22.9302C12.1814 23.4539 12.2973 24.187 12.8204 24.5672Z" fill="#343B3B"></path> <path d="M20.0854 18.1091C20.3314 18.1091 20.5792 18.0315 20.791 17.8704C21.3135 17.4883 21.4264 16.7553 21.0443 16.2328C20.6616 15.7104 19.9286 15.5975 19.4067 15.9795L19.3774 16.0009C18.8623 16.3921 18.7597 17.1288 19.151 17.6446C19.3817 17.9485 19.7314 18.1091 20.0854 18.1091Z" fill="#343B3B"></path> <path d="M7.8125 50.848C7.96753 51.3516 8.43017 51.6744 8.93066 51.6744C9.04479 51.6744 9.16137 51.6573 9.27612 51.6219C9.89135 51.4333 10.2386 50.7815 10.0543 50.165C9.87792 49.5498 9.24011 49.1885 8.61938 49.3575C7.99499 49.5278 7.62695 50.1724 7.79724 50.7967C7.8009 50.809 7.80883 50.8358 7.8125 50.848Z" fill="#343B3B"></path> <path d="M16.5454 21.1978C16.8499 21.1978 17.1545 21.08 17.3846 20.8456C17.8418 20.3879 17.8418 19.6457 17.3846 19.1885C16.9269 18.7308 16.1847 18.7308 15.7269 19.1885L15.7074 19.2081C15.2545 19.6701 15.2636 20.4111 15.7257 20.864C15.9533 21.0873 16.2494 21.1978 16.5454 21.1978Z" fill="#343B3B"></path> <path d="M9.10765 45.7386C9.02525 45.102 8.44359 44.6504 7.80638 44.7261C7.16429 44.803 6.70531 45.3858 6.7816 46.0285L6.78832 46.0755C6.87377 46.6578 7.37364 47.0753 7.94554 47.0753C8.0017 47.0753 8.05907 47.071 8.11705 47.0625C8.75487 46.9697 9.19737 46.3764 9.10765 45.7386Z" fill="#343B3B"></path> <path d="M7.63549 42.3822C7.6477 42.3822 7.65929 42.3828 7.67089 42.3828C8.30199 42.3828 8.82323 41.8805 8.84155 41.2451L8.84277 41.1951C8.84277 40.5475 8.31786 40.0232 7.67089 40.0232C7.02819 40.0232 6.50695 40.5396 6.49901 41.1798C6.48192 41.8256 6.99035 42.3633 7.63549 42.3822V42.3822Z" fill="#343B3B"></path> <path d="M7.89245 37.6823C7.96264 37.6945 8.03161 37.7006 8.10058 37.7006C8.65722 37.7006 9.15099 37.3021 9.25292 36.7351C9.25597 36.718 9.25841 36.7009 9.26085 36.6838C9.35546 36.0435 8.91295 35.4478 8.27208 35.3538C7.63915 35.2598 7.0465 35.695 6.94457 36.3261C6.83349 36.9621 7.25707 37.5682 7.89245 37.6823Z" fill="#343B3B"></path> <path d="M63.1719 24.937C63.3989 25.2666 63.7639 25.443 64.1362 25.443C64.3651 25.443 64.597 25.3758 64.7997 25.2361C65.3325 24.8699 65.4674 24.1399 65.1012 23.6064L64.1271 24.2583L65.0975 23.6009C64.7338 23.0651 64.005 22.9253 63.4697 23.2884C62.9338 23.6516 62.7941 24.3804 63.1572 24.9162L63.1719 24.937Z" fill="#343B3B"></path> <path d="M69.1564 36.7296C68.5131 36.8016 68.0504 37.3821 68.1231 38.0254L68.1292 38.076C68.2128 38.6601 68.7145 39.0819 69.2882 39.0819C69.3432 39.0819 69.3993 39.0782 69.4555 39.0703C70.0909 38.9793 70.534 38.394 70.4516 37.7593C70.3777 37.1178 69.7954 36.6576 69.1564 36.7296Z" fill="#343B3B"></path> <path d="M67.1789 33.4229L67.1837 33.4382C67.3339 33.949 67.8008 34.2798 68.3074 34.2798C68.4167 34.2798 68.5277 34.2646 68.6382 34.2316C69.2595 34.0491 69.6148 33.3979 69.4323 32.7765L69.4274 32.7613C69.2449 32.1399 68.5937 31.7847 67.9723 31.9678C67.3516 32.1503 66.9964 32.8016 67.1789 33.4229V33.4229Z" fill="#343B3B"></path> <path d="M65.5236 29.0413C65.7281 29.4569 66.1461 29.6992 66.5807 29.6992C66.7534 29.6992 66.9292 29.6608 67.0946 29.579C67.6751 29.2933 67.9162 28.5951 67.6299 28.0141L66.5679 28.509L67.6287 28.0116C67.354 27.4257 66.6564 27.1736 66.0705 27.4483C65.4845 27.7229 65.2318 28.4205 65.5065 29.0065L65.5236 29.0413Z" fill="#343B3B"></path> <path d="M60.2202 21.2774C60.4497 21.5118 60.753 21.629 61.057 21.629C61.353 21.629 61.649 21.5179 61.8773 21.2939C62.3363 20.8447 62.3467 20.1104 61.9042 19.6478C61.4653 19.1747 60.7256 19.1461 60.2507 19.5843C59.7753 20.0231 59.746 20.7647 60.1848 21.2402L60.2202 21.2774Z" fill="#343B3B"></path> <path d="M69.5372 41.623C68.8933 41.6065 68.3543 42.1112 68.3317 42.7552C68.3025 43.3966 68.795 43.9429 69.4371 43.9789C69.4597 43.9801 69.481 43.9807 69.5036 43.9807C70.1207 43.9807 70.6377 43.498 70.6724 42.8736L70.6743 42.8253C70.6926 42.179 70.1836 41.6419 69.5372 41.623V41.623Z" fill="#343B3B"></path> <path d="M52.7264 15.5231L52.7544 15.5383C52.929 15.6311 53.1164 15.6751 53.3007 15.6751C53.7176 15.6751 54.121 15.4504 54.3328 15.0568C54.638 14.4885 54.4231 13.7781 53.8567 13.4705L53.2897 14.4959L53.8531 13.468C53.2854 13.1567 52.5732 13.3649 52.2619 13.9325C51.9512 14.4995 52.1587 15.2124 52.7264 15.5231V15.5231Z" fill="#343B3B"></path> <path d="M56.69 18.0935L56.7083 18.1075C56.9201 18.268 57.1685 18.3455 57.4157 18.3455C57.7697 18.3455 58.1194 18.1856 58.3501 17.8817C58.7414 17.3659 58.64 16.631 58.1249 16.2398L58.117 16.2343C57.6037 15.84 56.8682 15.9365 56.4739 16.4498C56.0796 16.9631 56.1767 17.6992 56.69 18.0935V18.0935Z" fill="#343B3B"></path> <path d="M79.2767 59.364L73.7756 53.8531C73.3075 53.3844 72.6855 53.1262 72.0233 53.1262C71.3617 53.1262 70.7391 53.3844 70.2716 53.8531L70.144 53.9807L69.7827 53.6194C69.3365 53.172 68.9911 52.6514 68.7567 52.0844C68.736 52.0093 68.7085 51.936 68.6731 51.8671C68.4937 51.3629 68.4003 50.8264 68.4003 50.2753V48.7164C68.5071 48.7726 68.6237 48.8135 68.7488 48.8348C68.8159 48.8464 68.8824 48.8519 68.9484 48.8519C69.5044 48.8519 69.9963 48.4552 70.0995 47.8912C70.2246 47.2577 69.8138 46.6418 69.1797 46.5149C68.9008 46.4594 68.6249 46.5076 68.3929 46.6333C68.3209 44.9683 67.6404 43.4131 66.4563 42.2266L61.1194 36.8805C59.9219 35.6812 58.3295 35.0208 56.6357 35.0208C55.3247 35.0208 54.0759 35.4181 53.0225 36.1536L52.4561 35.5841V22.1808C52.4561 20.5652 51.8695 19.0063 50.8051 17.7924C50.0476 16.9293 49.6307 15.8209 49.6307 14.671V13.689H49.7113C51.0773 13.689 52.1887 12.5775 52.1887 11.2109V3.41553C52.1887 2.04895 51.0773 0.9375 49.7113 0.9375H27.821C26.4551 0.9375 25.3436 2.04895 25.3436 3.41553V11.2109C25.3436 12.5775 26.4551 13.689 27.821 13.689H28.0017V14.2029C28.0017 15.4663 27.5104 16.6541 26.6187 17.547L24.256 19.9139C23.0023 21.17 22.312 22.8394 22.312 24.6155V32.1759C22.312 33.2031 22.5586 34.173 22.9926 35.0323C21.4386 35.1221 19.9902 35.7697 18.8806 36.8805L13.5437 42.2266C12.29 43.4827 11.5997 45.1526 11.5997 46.9281V50.2753C11.5997 51.5387 11.109 52.7264 10.2173 53.6194L9.86023 53.9771C9.8584 53.9783 9.85718 53.9795 9.85596 53.9807L9.729 53.8531C9.26086 53.3844 8.63892 53.1262 7.97668 53.1262C7.31506 53.1262 6.6925 53.3844 6.22498 53.8531L0.723267 59.364C-0.241089 60.3302 -0.241089 61.9025 0.723267 62.8687L2.60742 64.7552C3.06458 65.2136 3.80676 65.2142 4.26453 64.7571C4.72229 64.2993 4.72351 63.5577 4.26575 63.0994L2.3822 61.2122C2.3291 61.1591 2.3291 61.073 2.3822 61.0199L7.88391 55.509C7.93518 55.4578 8.0188 55.4572 8.07007 55.509L9.02649 56.4673H9.0271L22.0868 69.5496L23.5498 71.0156C23.6029 71.0687 23.6029 71.1548 23.5498 71.2079L18.0487 76.7188C17.9968 76.7706 17.9132 76.7706 17.8619 76.7188L7.58362 66.4227C7.12646 65.9644 6.38428 65.9637 5.92651 66.4209C5.46814 66.8787 5.46753 67.6202 5.92468 68.0786L16.2036 78.3746C16.6711 78.8434 17.2937 79.1016 17.9559 79.1016C18.6176 79.1016 19.2395 78.8434 19.7076 78.3746L25.2087 72.8638C26.1731 71.8982 26.1731 70.3259 25.2087 69.3597L25.1489 69.2999L25.8429 68.6047C26.6534 67.7924 27.7301 67.3041 28.8745 67.2302C30.4852 67.1259 32.0007 66.4386 33.1415 65.2954L38.1952 60.2307C39.6527 59.848 40.7874 58.6609 41.0956 57.1741C41.615 57.4213 42.1954 57.5604 42.8082 57.5604C45.0122 57.5604 46.8054 55.7654 46.8054 53.5583V50.7758C47.3096 51.0059 47.8693 51.1353 48.4589 51.1353C50.6628 51.1353 52.4554 49.3402 52.4554 47.1332V38.9069L56.0602 42.5293C56.2891 42.7594 56.59 42.8741 56.8909 42.8741C57.1899 42.8741 57.489 42.7606 57.7179 42.533C58.1763 42.0764 58.1781 41.3348 57.7216 40.8759L54.7162 37.8558C55.2979 37.5354 55.9534 37.3645 56.6357 37.3645C57.7026 37.3645 58.7061 37.7808 59.4604 38.537L64.7974 43.8824C65.6091 44.696 66.0565 45.7776 66.0565 46.9281V50.2753C66.0565 52.1643 66.7908 53.9398 68.1238 55.2753L68.4875 55.6396L66.7877 57.3425L56.507 67.641L55.9338 67.0667C55.9277 67.0612 55.9222 67.0551 55.9161 67.0496L55.8154 66.9482C54.6021 65.733 52.9901 65.0024 51.2775 64.8914C50.2356 64.8236 49.2554 64.3793 48.5138 63.6371L44.6631 59.8071C44.2041 59.3506 43.4619 59.3524 43.0054 59.8114C42.5494 60.2704 42.5513 61.0126 43.0103 61.4685L46.8585 65.2954C47.9993 66.4386 49.5148 67.1259 51.1261 67.2302C52.2699 67.3041 53.3466 67.7924 54.1571 68.6041L54.2139 68.6609C54.2444 68.6957 54.2767 68.728 54.3109 68.7585L54.8511 69.2993L54.7913 69.3597C53.8269 70.3259 53.8269 71.8976 54.7913 72.8638L60.2924 78.3746C60.7605 78.8434 61.3824 79.1016 62.0447 79.1016C62.7063 79.1016 63.3289 78.8434 63.797 78.3746L79.2767 62.868C80.2411 61.9019 80.2411 60.3302 79.2767 59.364V59.364ZM69.1858 47.7112L69.1638 47.7075L68.9502 47.6642L69.1858 47.7112ZM31.4825 63.6395C30.7446 64.3793 29.7644 64.8236 28.7231 64.8914C27.0099 65.0024 25.3979 65.733 24.1846 66.9482L23.493 67.641L22.8705 67.0172C22.8625 67.0093 22.8546 67.0007 22.8467 66.9934L11.5125 55.6396L11.8762 55.2753C13.2092 53.9398 13.9435 52.1643 13.9435 50.2753V46.9281C13.9435 45.7776 14.3903 44.696 15.2026 43.8824L20.5396 38.537C21.2939 37.7808 22.2974 37.3645 23.3643 37.3645C24.0485 37.3645 24.7064 37.5366 25.2899 37.8595L22.2797 40.8746C21.8225 41.3324 21.8231 42.0746 22.2809 42.5317C22.5098 42.76 22.8094 42.8741 23.1091 42.8741C23.4094 42.8741 23.7097 42.7594 23.9386 42.5305L27.5342 38.9282V53.5583C27.5342 55.7654 29.3274 57.5604 31.5314 57.5604C32.1527 57.5604 32.7411 57.4176 33.266 57.1637C33.504 58.3252 34.2462 59.3042 35.2521 59.8621L31.4825 63.6395ZM50.1123 47.1338C50.1123 48.0481 49.3701 48.7921 48.4589 48.7921C47.547 48.7921 46.8054 48.0481 46.8054 47.1338V34.0619C46.8054 33.4149 46.2811 32.89 45.6335 32.89C44.986 32.89 44.4617 33.4149 44.4617 34.0619V53.559C44.4617 54.4733 43.7201 55.2167 42.8082 55.2167C41.9897 55.2167 41.3104 54.6173 41.1792 53.833V34.0485C41.1792 33.4009 40.6549 32.8766 40.0073 32.8766C39.7992 32.8766 39.6033 32.9315 39.4336 33.0267C39.0631 33.2239 38.811 33.6133 38.811 34.0619V53.5583C38.811 53.7073 38.8196 53.8531 38.8354 53.9978V56.3593C38.8354 57.2736 38.0939 58.0176 37.182 58.0176C36.2708 58.0176 35.5292 57.2736 35.5292 56.3593V34.0344C35.5292 33.3875 35.0043 32.8625 34.3573 32.8625C33.7097 32.8625 33.1848 33.3875 33.1848 34.0344V53.5583C33.1848 54.4727 32.4432 55.2167 31.532 55.2167C30.6201 55.2167 29.8785 54.4727 29.8785 53.5583V31.7596C29.8785 31.1121 29.3536 30.5872 28.7067 30.5872C28.0591 30.5872 27.5348 31.1121 27.5348 31.7596V35.7916C27.4365 35.8234 27.3413 35.8679 27.2528 35.9265C25.7373 35.3571 24.6558 33.891 24.6558 32.1759V24.6155C24.6558 23.465 25.1031 22.3834 25.9149 21.5698L28.2776 19.2029C29.6112 17.8674 30.3455 16.0919 30.3455 14.2029V13.689H32.7014C33.349 13.689 33.8733 13.1641 33.8733 12.5171C33.8733 11.8695 33.349 11.3452 32.7014 11.3452H27.821C27.7472 11.3452 27.6874 11.2848 27.6874 11.2109V3.41553C27.6874 3.34167 27.7472 3.28125 27.821 3.28125H49.7107C49.7852 3.28125 49.845 3.34167 49.845 3.41553V11.2109C49.845 11.2854 49.7852 11.3452 49.7107 11.3452H38.2031C37.5562 11.3452 37.0312 11.8695 37.0312 12.5171C37.0312 13.1641 37.5562 13.689 38.2031 13.689H47.287V14.671C47.287 16.3898 47.9102 18.0469 49.0424 19.3384C49.7321 20.1245 50.1123 21.134 50.1123 22.1808V47.1338ZM77.6178 61.2122L62.1381 76.7188C62.1124 76.745 62.0813 76.7578 62.0447 76.7578C62.0087 76.7578 61.9775 76.745 61.9513 76.7188L56.4502 71.2079C56.3971 71.1548 56.3971 71.0687 56.4502 71.0156L57.3358 70.1282L57.3364 70.1276L66.3226 61.1261L71.9299 55.509C71.9812 55.4572 72.0648 55.4572 72.1161 55.509L77.6178 61.0199C77.6709 61.073 77.6709 61.1591 77.6178 61.2122V61.2122Z" fill="#343B3B"></path> <path d="M31.5313 6.06323C30.8435 6.06323 30.2838 6.62415 30.2838 7.31323C30.2838 8.00293 30.8435 8.56323 31.5313 8.56323C32.2198 8.56323 32.7795 8.00293 32.7795 7.31323C32.7795 6.62415 32.2198 6.06323 31.5313 6.06323Z" fill="#343B3B"></path> <path d="M72.4065 59.4822C71.718 59.4822 71.1583 60.0431 71.1583 60.7322C71.1583 61.4213 71.718 61.9822 72.4065 61.9822C73.0944 61.9822 73.6541 61.4213 73.6541 60.7322C73.6541 60.0431 73.0944 59.4822 72.4065 59.4822Z" fill="#343B3B"></path> <path d="M19.5288 71.438C19.5288 70.7489 18.9691 70.188 18.2812 70.188C17.5927 70.188 17.0331 70.7489 17.0331 71.438C17.0331 72.1271 17.5927 72.688 18.2812 72.688C18.9691 72.688 19.5288 72.1271 19.5288 71.438Z" fill="#343B3B"></path> </g> <defs> <clipPath id="clip0"> <rect width="80" height="80" fill="white"></rect> </clipPath> </defs> </svg> 