<?xml version="1.0" encoding="UTF-8"?> <svg xmlns="http://www.w3.org/2000/svg" width="176" height="72" viewBox="0 0 176 72" fill="none"> <rect width="176" height="72" fill="white"></rect> <path d="M30.5352 18.111C31.6771 18.5324 32.5445 19.2643 33.1374 20.3066C33.7303 21.3268 34.0267 22.5244 34.0267 23.8994C34.0267 26.0506 33.3021 27.725 31.8527 28.9226C30.4254 30.1202 28.5259 30.719 26.1543 30.719H15.7455V7.43246H26.1543C28.2624 7.43246 29.9642 7.95364 31.2598 8.99599C32.5774 10.0383 33.2362 11.5575 33.2362 13.5535C33.2362 15.6382 32.3358 17.1574 30.5352 18.111ZM27.5706 14.5515C27.5706 13.8862 27.395 13.4315 27.0436 13.1876C26.6923 12.9436 26.1433 12.8216 25.3966 12.8216H21.3451V16.3146H25.6272C26.9228 16.3146 27.5706 15.7269 27.5706 14.5515ZM26.0225 25.3299C26.9009 25.3299 27.5048 25.1746 27.8341 24.8641C28.1855 24.5315 28.3612 24.0435 28.3612 23.4004C28.3612 22.7129 28.1965 22.225 27.8671 21.9367C27.5377 21.6262 26.9228 21.4709 26.0225 21.4709H21.3451V25.3299H26.0225Z" fill="black"></path> <path d="M42.3325 7.43246H57.7481V30.719H52.1484V12.8216H47.0758L45.3959 23.5335C44.5834 28.6122 42.2996 31.1515 38.5445 31.1515C37.8418 31.1515 36.9964 31.0517 36.0082 30.8521V25.7623C36.667 25.851 37.1172 25.8954 37.3587 25.8954C38.1273 25.8954 38.6983 25.6958 39.0716 25.2966C39.4449 24.8752 39.7194 24.099 39.895 22.9679L42.3325 7.43246Z" fill="black"></path> <path d="M78.7265 30.719L77.0795 25.8954H68.4495L66.8025 30.719H60.8734L69.24 7.43246H76.289L84.6555 30.719H78.7265ZM70.2941 20.5062H75.2349L72.7645 13.2541L70.2941 20.5062Z" fill="black"></path> <path d="M97.6145 31.1515C94.1669 31.1515 91.3122 29.9983 89.0503 27.6918C86.7885 25.3853 85.6576 22.5133 85.6576 19.0757C85.6576 15.6382 86.7885 12.7662 89.0503 10.4597C91.3122 8.15324 94.1669 7 97.6145 7C100.403 7 102.808 7.7984 104.828 9.39519C106.87 10.992 108.21 13.0767 108.847 15.6493H102.852C102.391 14.6291 101.699 13.8307 100.777 13.2541C99.8764 12.6775 98.8223 12.3892 97.6145 12.3892C95.726 12.3892 94.1998 13.0102 93.036 14.2521C91.8941 15.4941 91.3232 17.1019 91.3232 19.0757C91.3232 21.0496 91.8941 22.6574 93.036 23.8994C94.1998 25.1413 95.726 25.7623 97.6145 25.7623C98.8223 25.7623 99.8764 25.474 100.777 24.8974C101.699 24.3208 102.391 23.5224 102.852 22.5022H108.847C108.21 25.0748 106.87 27.1595 104.828 28.7563C102.808 30.3531 100.403 31.1515 97.6145 31.1515Z" fill="black"></path> <path d="M126.772 7.43246H132.371V30.719H126.772V21.5375H117.911V30.719H112.311V7.43246H117.911V16.1483H126.772V7.43246Z" fill="black"></path> <path d="M153.354 30.719L151.707 25.8954H143.077L141.43 30.719H135.501L143.868 7.43246H150.917L159.283 30.719H153.354ZM144.922 20.5062H149.863L147.392 13.2541L144.922 20.5062Z" fill="black"></path> <path d="M27.5862 66C23.9572 66 20.9522 64.7861 18.5713 62.3582C16.1904 59.9303 15 56.9072 15 53.2887C15 49.6702 16.1904 46.6471 18.5713 44.2192C20.9522 41.7913 23.9572 40.5774 27.5862 40.5774C30.5219 40.5774 33.053 41.4178 35.1796 43.0986C37.3293 44.7795 38.7393 46.9739 39.4097 49.6819H33.0992C32.6138 48.608 31.8857 47.7676 30.9148 47.1606C29.9671 46.5537 28.8576 46.2502 27.5862 46.2502C25.5983 46.2502 23.9918 46.9039 22.7667 48.2112C21.5647 49.5185 20.9637 51.211 20.9637 53.2887C20.9637 55.3664 21.5647 57.0589 22.7667 58.3662C23.9918 59.6735 25.5983 60.3272 27.5862 60.3272C28.8576 60.3272 29.9671 60.0237 30.9148 59.4167C31.8857 58.8098 32.6138 57.9694 33.0992 56.8955H39.4097C38.7393 59.6035 37.3293 61.7979 35.1796 63.4788C33.053 65.1596 30.5219 66 27.5862 66Z" fill="black"></path> <path d="M64.1723 41.0326V65.5448H58.2779V46.7054H48.9509V65.5448H43.0566V41.0326H48.9509H64.1723Z" fill="black"></path> <path d="M79.4292 41.0326C82.0643 41.0326 84.1793 41.768 85.7743 43.2387C87.3692 44.7094 88.1667 46.7755 88.1667 49.4368C88.1667 52.0981 87.3577 54.1875 85.7396 55.7049C84.1447 57.2223 82.0412 57.981 79.4292 57.981H74.9217V65.5448H69.0273V41.0326H79.4292ZM79.1865 52.3082C81.1975 52.3082 82.203 51.3744 82.203 49.5068C82.203 47.6392 81.1975 46.7054 79.1865 46.7054H74.9217V52.3082H79.1865Z" fill="black"></path> <path d="M105.763 65.5448L104.03 60.4673H94.9453L93.2116 65.5448H86.9705L95.7774 41.0326H103.197L112.004 65.5448H105.763ZM96.8869 54.7944H102.088L99.4874 47.1606L96.8869 54.7944Z" fill="black"></path> <path d="M130.882 52.2732C132.084 52.7167 132.997 53.4871 133.621 54.5843C134.246 55.6582 134.558 56.9188 134.558 58.3662C134.558 60.6307 133.795 62.3932 132.269 63.6538C130.767 64.9145 128.767 65.5448 126.271 65.5448H115.314V41.0326H126.271C128.49 41.0326 130.281 41.5812 131.645 42.6784C133.032 43.7756 133.725 45.3748 133.725 47.4758C133.725 49.6702 132.778 51.2694 130.882 52.2732ZM127.762 48.5263C127.762 47.826 127.577 47.3474 127.207 47.0906C126.837 46.8338 126.259 46.7054 125.473 46.7054H121.209V50.3822H125.716C127.08 50.3822 127.762 49.7636 127.762 48.5263ZM126.132 59.872C127.057 59.872 127.692 59.7085 128.039 59.3817C128.409 59.0315 128.594 58.518 128.594 57.841C128.594 57.1173 128.421 56.6037 128.074 56.3002C127.727 55.9734 127.08 55.8099 126.132 55.8099H121.209V59.872H126.132Z" fill="black"></path> <path d="M154.759 65.5448L153.025 60.4673H143.941L142.207 65.5448H135.966L144.773 41.0326H152.193L161 65.5448H154.759ZM145.883 54.7944H151.084L148.483 47.1606L145.883 54.7944Z" fill="black"></path> </svg> 