<?xml version="1.0" encoding="UTF-8"?> <svg xmlns="http://www.w3.org/2000/svg" width="40" height="40" viewBox="0 0 40 40" fill="none"> <path d="M37.6713 17.6716C37.6713 7.92742 29.744 0 19.9999 0C10.2559 0 2.32837 7.92742 2.32837 17.6716C2.32837 18.2504 2.79767 18.7197 3.37649 18.7197C3.95532 18.7197 4.42462 18.2503 4.42462 17.6716C4.42462 9.08328 11.4117 2.09633 19.9999 2.09633C28.5881 2.09633 35.5751 9.08336 35.5751 17.6716C35.5751 26.2597 28.5881 33.2467 19.9999 33.2467H18.1814L20.7816 30.3362C21.1673 29.9045 21.1299 29.2419 20.6982 28.8562C20.2666 28.4705 19.6038 28.508 19.2182 28.9396L15.5013 33.1002C14.8929 33.7812 14.8929 34.8084 15.5013 35.4895L19.2182 39.6501C19.4253 39.882 19.7121 39.9999 20.0002 39.9999C20.2488 39.9999 20.4983 39.912 20.6982 39.7335C21.1299 39.3478 21.1673 38.6852 20.7816 38.2535L18.1814 35.343H19.9999C29.744 35.343 37.6713 27.4155 37.6713 17.6716Z" fill="#343B3B"></path> </svg> 