<?xml version="1.0" encoding="UTF-8"?> <svg xmlns="http://www.w3.org/2000/svg" width="40" height="40" viewBox="0 0 40 40" fill="none"> <path d="M37.8982 6.25765H22.8082C22.5063 6.25765 22.2136 6.14874 21.9845 5.9514L19.2163 3.56343C18.6817 3.10296 17.9993 2.84937 17.2948 2.84937H7.3768C6.21789 2.84937 5.275 3.79226 5.275 4.95116V7.7603H2.1018C0.942891 7.7603 0 8.70319 0 9.8621V35.0485C0 36.2074 0.942891 37.1503 2.1018 37.1503H32.6231C33.782 37.1503 34.7249 36.2074 34.7249 35.0485V32.24H37.8982C39.0571 32.24 40 31.2971 40 30.1382V8.35944C40 7.20046 39.0571 6.25765 37.8982 6.25765ZM33.0435 35.0485C33.0435 35.2803 32.8549 35.4689 32.6231 35.4689H2.1018C1.87 35.4689 1.68141 35.2803 1.68141 35.0485V17.7676H33.0434V35.0485H33.0435ZM33.0435 16.0862H1.68141V9.86218C1.68141 9.63038 1.87 9.44179 2.1018 9.44179H12.0192C12.3215 9.44179 12.6139 9.55046 12.8428 9.74796L15.6111 12.1354C16.1452 12.5959 16.8276 12.8495 17.5328 12.8495H32.6231C32.8549 12.8495 33.0435 13.0381 33.0435 13.2699V16.0862ZM38.3186 30.1382C38.3186 30.37 38.13 30.5586 37.8982 30.5586H34.7249V13.2698C34.7249 12.1109 33.782 11.168 32.6231 11.168H17.5328C17.2305 11.168 16.938 11.0594 16.7091 10.8619L13.9409 8.47468C13.4069 8.01405 12.7245 7.76038 12.0192 7.76038H6.95641V4.95116C6.95641 4.71937 7.145 4.53077 7.3768 4.53077H17.2948C17.5966 4.53077 17.8894 4.63968 18.1185 4.83702L20.8866 7.22499C21.4212 7.68538 22.1037 7.93897 22.8082 7.93897H37.8983C38.1301 7.93897 38.3187 8.12757 38.3187 8.35937V30.1382H38.3186Z" fill="#343B3B"></path> <path d="M29.6987 20.6335H24.664C24.1997 20.6335 23.8233 21.01 23.8233 21.4742C23.8233 21.9385 24.1997 22.315 24.664 22.315H29.6987C30.163 22.315 30.5394 21.9385 30.5394 21.4742C30.5394 21.0099 30.1631 20.6335 29.6987 20.6335Z" fill="#343B3B"></path> <path d="M29.6987 24.6692H24.664C24.1997 24.6692 23.8233 25.0457 23.8233 25.5099C23.8233 25.9741 24.1997 26.3506 24.664 26.3506H29.6987C30.163 26.3506 30.5394 25.9741 30.5394 25.5099C30.5394 25.0457 30.1631 24.6692 29.6987 24.6692Z" fill="#343B3B"></path> </svg> 