<?xml version="1.0" encoding="UTF-8"?> <svg xmlns="http://www.w3.org/2000/svg" width="40" height="40" viewBox="0 0 40 40" fill="none"> <path d="M39.055 35.6724H0.945C0.423047 35.6724 0 36.0954 0 36.6174C0 37.1392 0.423047 37.5624 0.945 37.5624H39.055C39.5768 37.5624 40 37.1392 40 36.6174C40 36.0955 39.577 35.6724 39.055 35.6724Z" fill="#343B3B"></path> <path d="M36.5914 6.89899H29.9548C29.4331 6.89899 29.0098 7.3222 29.0098 7.84399V14.269H24.2632V3.38274C24.2632 2.86095 23.84 2.43774 23.3182 2.43774H16.6815C16.1597 2.43774 15.7365 2.86095 15.7365 3.38274V21.2641H10.9898V13.2314C10.9898 12.7095 10.5666 12.2864 10.0449 12.2864H3.40829C2.88633 12.2864 2.46329 12.7095 2.46329 13.2314V31.3223C2.46329 31.8442 2.88649 32.2673 3.40829 32.2673H10.0449H16.6814H23.3181H29.9548H36.5913C37.1133 32.2673 37.5363 31.8441 37.5363 31.3223V7.84399C37.5364 7.3222 37.1134 6.89899 36.5914 6.89899ZM9.09993 30.3773H4.35329V14.1764H9.09993V30.3773ZM15.7366 30.3773H10.99V23.1542H15.7366V30.3773ZM22.3733 15.214V30.3773H17.6266V4.32774H22.3733V15.214ZM29.01 30.3773H24.2634V16.159H29.01V30.3773ZM35.6466 30.3773H30.9V15.214V8.78899H35.6466V30.3773H35.6466Z" fill="#343B3B"></path> </svg> 